<?xml version="1.0" encoding="utf-8"?>
<!-- Generator: Adobe Illustrator 15.0.0, SVG Export Plug-In . SVG Version: 6.00 Build 0)  -->
<!DOCTYPE svg PUBLIC "-//W3C//DTD SVG 1.0//EN" "http://www.w3.org/TR/2001/REC-SVG-20010904/DTD/svg10.dtd">
<svg version="1.0" id="Layer_1" xmlns="http://www.w3.org/2000/svg" xmlns:xlink="http://www.w3.org/1999/xlink" x="0px" y="0px"
	 width="202px" height="202px" viewBox="0 0 202 202" enable-background="new 0 0 202 202" xml:space="preserve">
<g>
	<path fill="none" stroke="#000000" stroke-width="35" stroke-linecap="round" stroke-linejoin="round" stroke-miterlimit="3" d="
		M579.85,733.8l-80.3,162.3c-25.2-0.198-44.7-10.398-58.5-30.6c-13.898-20.366-20.966-44.7-21.2-73
		c-0.198-24.5,5.234-45.066,16.302-61.7"/>
</g>
<g>
	<path d="M82.035,184.85c-0.19,0-0.379-0.003-0.571-0.009c-9.66-0.31-17.24-8.392-16.931-18.052
		c0.483-15.064,6.06-29.763,16.578-43.687c11.785-15.62,26.307-26.32,43.156-31.794c18.766-6.084,37.19-3.039,53.306,8.807
		c1.797,1.292,3.33,2.879,4.563,4.729c5.361,8.042,3.188,18.907-4.854,24.268c-6.676,4.45-15.297,3.71-21.101-1.271
		c-6.796-4.765-13.345-5.758-21.108-3.242c-10.022,3.256-18.539,9.665-26.028,19.592c-6.164,8.16-9.279,15.917-9.529,23.72
		C99.212,177.379,91.44,184.85,82.035,184.85z M58.394,108.096c-11.509,0-22.13-2.374-31.713-7.103
		c-8.667-4.277-12.226-14.77-7.949-23.438c4.278-8.667,14.771-12.225,23.438-7.949c6.992,3.451,15.292,4.339,25.375,2.716
		c0.035-0.005,0.071-0.011,0.106-0.017c12.205-1.887,21.854-6.376,29.5-13.723c5.859-5.63,8.052-11.871,7.04-20.131
		c-1.265-5.708,0.359-11.92,4.847-16.311c6.907-6.759,17.986-6.639,24.747,0.27c2.805,2.867,4.533,6.536,4.977,10.495
		c2.779,19.727-3.217,37.323-17.359,50.914c-12.819,12.318-29.086,20.078-48.349,23.067
		C68.024,107.693,63.133,108.096,58.394,108.096z"/>
</g>
</svg>
