<?xml version="1.0" encoding="utf-8"?>
<!-- Generator: Adobe Illustrator 15.0.0, SVG Export Plug-In . SVG Version: 6.00 Build 0)  -->
<!DOCTYPE svg PUBLIC "-//W3C//DTD SVG 1.1//EN" "http://www.w3.org/Graphics/SVG/1.1/DTD/svg11.dtd">
<svg version="1.1" id="Layer_1" xmlns="http://www.w3.org/2000/svg" xmlns:xlink="http://www.w3.org/1999/xlink" x="0px" y="0px"
	 width="202px" height="202px" viewBox="0 0 202 202" enable-background="new 0 0 202 202" xml:space="preserve">
<g>
	<path fill="none" stroke="#000000" stroke-width="35" stroke-linecap="round" stroke-linejoin="round" stroke-miterlimit="3" d="
		M579.85,733.8l-80.3,162.3c-25.2-0.197-44.7-10.397-58.5-30.6c-13.897-20.366-20.966-44.7-21.2-73
		c-0.197-24.5,5.234-45.066,16.303-61.7"/>
</g>
<g>
	<path d="M107.917,186.853c-5.899,0-11.657-2.982-14.955-8.387c-5.648-9.255-8.512-19.74-8.512-31.165
		c0-16.067,5.549-30.025,16.494-41.486c11.027-11.5,25.129-17.564,40.806-17.564c12.232,0,23.288,3.565,32.859,10.595
		c7.79,5.721,9.466,16.674,3.745,24.463c-5.724,7.791-16.676,9.464-24.464,3.745c-3.533-2.595-7.391-3.804-12.141-3.804
		c-6.248,0-11.033,2.086-15.519,6.763c-4.618,4.836-6.781,10.338-6.781,17.288c0,4.967,1.108,9.196,3.388,12.933
		c5.035,8.25,2.429,19.02-5.821,24.054C114.171,186.024,111.023,186.853,107.917,186.853z M60.25,113.751
		c-12.234,0-23.29-3.565-32.861-10.598c-7.789-5.722-9.464-16.675-3.742-24.464c5.722-7.789,16.674-9.466,24.464-3.742
		c3.532,2.595,7.389,3.803,12.139,3.803c6.249,0,11.035-2.085,15.519-6.762c4.619-4.837,6.782-10.339,6.782-17.289
		c0-4.991-1.103-9.24-3.372-12.989c-5.004-8.269-2.357-19.028,5.911-24.032c8.269-5.003,19.029-2.358,24.032,5.911
		c5.593,9.242,8.429,19.708,8.429,31.11c0,16.067-5.55,30.025-16.494,41.486C90.03,107.686,75.928,113.751,60.25,113.751z"/>
</g>
</svg>
