<?xml version="1.0" encoding="utf-8"?>
<!-- Generator: Adobe Illustrator 15.0.0, SVG Export Plug-In . SVG Version: 6.00 Build 0)  -->
<!DOCTYPE svg PUBLIC "-//W3C//DTD SVG 1.0//EN" "http://www.w3.org/TR/2001/REC-SVG-20010904/DTD/svg10.dtd">
<svg version="1.0" id="Layer_1" xmlns="http://www.w3.org/2000/svg" xmlns:xlink="http://www.w3.org/1999/xlink" x="0px" y="0px"
	 width="202px" height="202px" viewBox="0 0 202 202" enable-background="new 0 0 202 202" xml:space="preserve">
<g>
	<path fill="none" stroke="#000000" stroke-width="35" stroke-linecap="round" stroke-linejoin="round" stroke-miterlimit="3" d="
		M579.85,733.8l-80.3,162.3c-25.2-0.198-44.7-10.398-58.5-30.6c-13.898-20.366-20.966-44.7-21.2-73
		c-0.198-24.5,5.234-45.066,16.302-61.7"/>
</g>
<g>
	<path d="M47.024,192.1h-0.449c-9.665,0-17.5-7.835-17.5-17.5s7.835-17.5,17.5-17.5h0.449c10.78,0,19.493-2.724,26.633-8.324
		c2.659-2.156,10.287-8.57,9.871-28.457c-0.002-0.122-0.004-0.244-0.004-0.366V94.15c0-0.124,0.001-0.248,0.004-0.372
		c0.48-22.579,8.201-40.07,22.947-51.988c0.058-0.047,0.115-0.093,0.174-0.139c5.17-4.07,10.819-7.389,16.875-9.918V27.4
		c0-9.665,7.835-17.5,17.5-17.5c9.198,0,16.739,7.097,17.446,16.114c8.213,1.441,14.454,8.61,14.454,17.236
		c0,8.607-6.214,15.763-14.4,17.227v56.674c0,9.665-7.835,17.5-17.5,17.5s-17.5-7.835-17.5-17.5V74.569
		c-3.157,4.957-4.803,11.497-5,19.778v25.429c0.476,24.639-7.241,43.571-22.937,56.277c-0.058,0.047-0.115,0.093-0.173,0.139
		C82.032,186.748,65.751,192.1,47.024,192.1z"/>
</g>
</svg>
