<?xml version="1.0" encoding="utf-8"?>
<!-- Generator: Adobe Illustrator 15.0.0, SVG Export Plug-In . SVG Version: 6.00 Build 0)  -->
<!DOCTYPE svg PUBLIC "-//W3C//DTD SVG 1.1//EN" "http://www.w3.org/Graphics/SVG/1.1/DTD/svg11.dtd">
<svg version="1.1" id="Layer_1" xmlns="http://www.w3.org/2000/svg" xmlns:xlink="http://www.w3.org/1999/xlink" x="0px" y="0px"
	 width="202px" height="202px" viewBox="0 0 202 202" enable-background="new 0 0 202 202" xml:space="preserve">
<g>
	<path fill="none" stroke="#000000" stroke-width="35" stroke-linecap="round" stroke-linejoin="round" stroke-miterlimit="3" d="
		M579.85,733.8l-80.3,162.3c-25.2-0.197-44.7-10.397-58.5-30.6c-13.897-20.366-20.966-44.7-21.2-73
		c-0.197-24.5,5.234-45.066,16.303-61.7"/>
</g>
<path d="M43.983,201.528c-3.074,0-6.186-0.81-9.012-2.512c-8.279-4.986-10.949-15.74-5.963-24.02l100-166.05
	c4.985-8.279,15.741-10.949,24.02-5.963c8.279,4.986,10.949,15.74,5.963,24.02l-100,166.05
	C55.707,198.508,49.918,201.528,43.983,201.528z M158,140.525c-9.665,0-17.5-7.835-17.5-17.5v-2.051c0-9.665,7.835-17.5,17.5-17.5
	s17.5,7.835,17.5,17.5v2.051C175.5,132.69,167.665,140.525,158,140.525z"/>
</svg>
