<?xml version="1.0" encoding="utf-8"?>
<!-- Generator: Adobe Illustrator 15.0.0, SVG Export Plug-In . SVG Version: 6.00 Build 0)  -->
<!DOCTYPE svg PUBLIC "-//W3C//DTD SVG 1.0//EN" "http://www.w3.org/TR/2001/REC-SVG-20010904/DTD/svg10.dtd">
<svg version="1.0" id="Layer_1" xmlns="http://www.w3.org/2000/svg" xmlns:xlink="http://www.w3.org/1999/xlink" x="0px" y="0px"
	 width="202px" height="202px" viewBox="0 0 202 202" enable-background="new 0 0 202 202" xml:space="preserve">
<g>
	<path fill="none" stroke="#000000" stroke-width="35" stroke-linecap="round" stroke-linejoin="round" stroke-miterlimit="3" d="
		M579.85,733.8l-80.3,162.3c-25.2-0.198-44.7-10.398-58.5-30.6c-13.898-20.366-20.966-44.7-21.2-73
		c-0.198-24.5,5.234-45.066,16.302-61.7"/>
</g>
<g>
	<path d="M116.872,198.116c-42.887,0-58.815-5.432-67.71-10.669c-13.161-7.73-29.101-23.479-30.21-54.556
		c-0.606-16.14,5.311-38.716,35.149-58.124c0.625-10.189,3.513-20.48,8.636-30.727c10.111-20.28,32.32-43.654,80.672-39.716
		c9.634,0.784,16.808,9.229,16.023,18.862c-0.783,9.633-9.23,16.798-18.861,16.023c-31.292-2.552-41.533,10.461-46.521,20.466
		c-4.099,8.199-5.69,15.706-4.873,22.969c0.856,7.546,4.307,14.953,10.548,22.643c15.091,18.566,40.23,38.229,74.71,58.43
		c6.635,3.888,9.954,11.65,8.183,19.133c-1.772,7.482-8.222,12.932-15.895,13.43C146.941,197.564,130.538,198.116,116.872,198.116z
		 M62.589,112.43c-9.042,9.018-8.772,16.219-8.661,19.182c0.583,16.34,7.241,22.298,12.976,25.666
		c2.611,1.538,12.178,5.299,43.346,5.775c-15.502-11.921-27.982-23.755-37.69-35.698C68.615,122.493,65.288,117.512,62.589,112.43z"
		/>
</g>
</svg>
