<?xml version="1.0" encoding="utf-8"?>
<!-- Generator: Adobe Illustrator 15.0.0, SVG Export Plug-In . SVG Version: 6.00 Build 0)  -->
<!DOCTYPE svg PUBLIC "-//W3C//DTD SVG 1.0//EN" "http://www.w3.org/TR/2001/REC-SVG-20010904/DTD/svg10.dtd">
<svg version="1.0" id="Layer_1" xmlns="http://www.w3.org/2000/svg" xmlns:xlink="http://www.w3.org/1999/xlink" x="0px" y="0px"
	 width="202px" height="202px" viewBox="0 0 202 202" enable-background="new 0 0 202 202" xml:space="preserve">
<g>
	<path fill="none" stroke="#000000" stroke-width="35" stroke-linecap="round" stroke-linejoin="round" stroke-miterlimit="3" d="
		M579.85,733.8l-80.3,162.3c-25.2-0.198-44.7-10.398-58.5-30.6c-13.898-20.366-20.966-44.7-21.2-73
		c-0.198-24.5,5.234-45.066,16.302-61.7"/>
</g>
<path d="M109.129,198.555c-6.977,0-13.569-4.2-16.284-11.083C69.551,128.421,69.596,70.124,92.979,14.2
	c3.729-8.918,13.981-13.122,22.896-9.395c8.917,3.728,13.123,13.979,9.395,22.896c-20.021,47.885-19.978,95.945,0.134,146.927
	c3.547,8.991-0.867,19.154-9.857,22.701C113.438,198.16,111.266,198.555,109.129,198.555z"/>
</svg>
