<?xml version="1.0" encoding="utf-8"?>
<!-- Generator: Adobe Illustrator 15.0.0, SVG Export Plug-In . SVG Version: 6.00 Build 0)  -->
<!DOCTYPE svg PUBLIC "-//W3C//DTD SVG 1.0//EN" "http://www.w3.org/TR/2001/REC-SVG-20010904/DTD/svg10.dtd">
<svg version="1.0" id="Layer_1" xmlns="http://www.w3.org/2000/svg" xmlns:xlink="http://www.w3.org/1999/xlink" x="0px" y="0px"
	 width="202px" height="202px" viewBox="0 0 202 202" enable-background="new 0 0 202 202" xml:space="preserve">
<g>
	<path fill="none" stroke="#000000" stroke-width="35" stroke-linecap="round" stroke-linejoin="round" stroke-miterlimit="3" d="
		M579.85,733.8l-80.3,162.3c-25.2-0.198-44.7-10.398-58.5-30.6c-13.898-20.366-20.966-44.7-21.2-73
		c-0.198-24.5,5.234-45.066,16.302-61.7"/>
</g>
<path d="M92.871,198.555c-2.137,0-4.309-0.395-6.417-1.226c-8.991-3.547-13.404-13.71-9.857-22.701
	c20.111-50.981,20.155-99.042,0.134-146.927c-3.729-8.917,0.478-19.168,9.395-22.896c8.916-3.728,19.167,0.478,22.896,9.395
	c23.383,55.924,23.428,114.221,0.134,173.272C106.44,194.354,99.847,198.555,92.871,198.555z"/>
</svg>
