<?xml version="1.0" encoding="utf-8"?>
<!-- Generator: Adobe Illustrator 15.0.0, SVG Export Plug-In . SVG Version: 6.00 Build 0)  -->
<!DOCTYPE svg PUBLIC "-//W3C//DTD SVG 1.0//EN" "http://www.w3.org/TR/2001/REC-SVG-20010904/DTD/svg10.dtd">
<svg version="1.0" id="Layer_1" xmlns="http://www.w3.org/2000/svg" xmlns:xlink="http://www.w3.org/1999/xlink" x="0px" y="0px"
	 width="202px" height="202px" viewBox="0 0 202 202" enable-background="new 0 0 202 202" xml:space="preserve">
<g>
	<path fill="none" stroke="#000000" stroke-width="35" stroke-linecap="round" stroke-linejoin="round" stroke-miterlimit="3" d="
		M579.85,733.8l-80.3,162.3c-25.2-0.198-44.7-10.398-58.5-30.6c-13.898-20.366-20.966-44.7-21.2-73
		c-0.198-24.5,5.234-45.066,16.302-61.7"/>
</g>
<g>
	<path d="M101,201.975c-26.955,0-50.234-10.043-69.192-29.849C13.028,152.544,3.5,128.602,3.5,100.975
		c0-27.594,9.528-51.521,28.32-71.113C50.764,10.068,74.044,0.025,101,0.025c26.916,0,50.192,10.039,69.181,29.837
		c18.791,19.593,28.319,43.519,28.319,71.113c0,27.626-9.528,51.569-28.318,71.164C151.19,191.937,127.915,201.975,101,201.975z
		 M101,35.025c-17.276,0-31.639,6.231-43.907,19.05C44.578,67.124,38.5,82.461,38.5,100.975c0,18.547,6.078,33.901,18.581,46.937
		c12.281,12.831,26.644,19.063,43.919,19.063c17.25,0,31.617-6.235,43.922-19.063c12.501-13.035,18.578-28.389,18.578-46.936
		c0-18.515-6.077-33.852-18.579-46.887C132.617,41.261,118.251,35.025,101,35.025z"/>
</g>
</svg>
