<?xml version="1.0" encoding="utf-8"?>
<!-- Generator: Adobe Illustrator 15.0.0, SVG Export Plug-In . SVG Version: 6.00 Build 0)  -->
<!DOCTYPE svg PUBLIC "-//W3C//DTD SVG 1.0//EN" "http://www.w3.org/TR/2001/REC-SVG-20010904/DTD/svg10.dtd">
<svg version="1.0" id="Layer_1" xmlns="http://www.w3.org/2000/svg" xmlns:xlink="http://www.w3.org/1999/xlink" x="0px" y="0px"
	 width="202px" height="202px" viewBox="0 0 202 202" enable-background="new 0 0 202 202" xml:space="preserve">
<g>
	<path fill="none" stroke="#000000" stroke-width="35" stroke-linecap="round" stroke-linejoin="round" stroke-miterlimit="3" d="
		M579.85,733.8l-80.3,162.3c-25.2-0.198-44.7-10.398-58.5-30.6c-13.898-20.366-20.966-44.7-21.2-73
		c-0.198-24.5,5.234-45.066,16.302-61.7"/>
</g>
<g>
	<path d="M155.7,201.824h-0.5c-19.519,0-36.353-6.892-50.034-20.483c-0.062-0.062-0.122-0.123-0.183-0.185
		c-14.707-15.052-21.934-37.365-21.483-66.321V82.426c-0.306-17.047-4.169-29.505-11.483-37.036
		C64.99,38.422,56.958,35.176,46.75,35.176H46.3c-9.665,0-17.5-7.835-17.5-17.5s7.835-17.5,17.5-17.5h0.45
		c19.563,0,36.404,6.899,50.055,20.505c0.051,0.051,0.102,0.103,0.153,0.154c13.85,14.152,21.097,34.725,21.54,61.146
		c0.002,0.098,0.003,0.196,0.003,0.293v32.7c0,0.096-0.001,0.192-0.002,0.288c-0.317,19.273,3.528,33.182,11.432,41.344
		c7.06,6.971,15.093,10.218,25.271,10.218h0.5c9.665,0,17.5,7.835,17.5,17.5S165.365,201.824,155.7,201.824z"/>
</g>
</svg>
