<?xml version="1.0" encoding="utf-8"?>
<!-- Generator: Adobe Illustrator 15.0.0, SVG Export Plug-In . SVG Version: 6.00 Build 0)  -->
<!DOCTYPE svg PUBLIC "-//W3C//DTD SVG 1.0//EN" "http://www.w3.org/TR/2001/REC-SVG-20010904/DTD/svg10.dtd">
<svg version="1.0" id="Layer_1" xmlns="http://www.w3.org/2000/svg" xmlns:xlink="http://www.w3.org/1999/xlink" x="0px" y="0px"
	 width="202px" height="202px" viewBox="0 0 202 202" enable-background="new 0 0 202 202" xml:space="preserve">
<g>
	<path fill="none" stroke="#000000" stroke-width="35" stroke-linecap="round" stroke-linejoin="round" stroke-miterlimit="3" d="
		M579.85,733.8l-80.3,162.3c-25.2-0.198-44.7-10.398-58.5-30.6c-13.898-20.366-20.966-44.7-21.2-73
		c-0.198-24.5,5.234-45.066,16.302-61.7"/>
</g>
<image overflow="visible" width="1600" height="900" xlink:href="107478B6.jpg"  transform="matrix(1 0 0 1 -8107 -8107)">
</image>
<image overflow="visible" width="1600" height="900" xlink:href="107478B5.jpg"  transform="matrix(1 0 0 1 -8107 -8107)">
</image>
<g>
	<path d="M163.699,200.525c-9.665,0-17.5-7.835-17.5-17.5v-70.424c-9.102,2.889-18.957,4.299-29.438,4.172
		c-25.83-0.279-48.419-8.997-67.143-25.913C30.354,73.376,20.6,49.385,20.6,19.525v-0.55c0-9.665,7.835-17.5,17.5-17.5
		s17.5,7.835,17.5,17.5v0.55c0,19.85,5.728,34.698,17.511,45.391c12.341,11.149,26.752,16.673,44.028,16.86
		c14.291,0.147,25.811-3.786,35.209-12.045c7.259-6.38,18.317-5.667,24.697,1.592c3.554,4.043,4.907,9.266,4.154,14.201v97.502
		C181.199,192.69,173.364,200.525,163.699,200.525z"/>
</g>
</svg>
