<?xml version="1.0" encoding="utf-8"?>
<!-- Generator: Adobe Illustrator 15.0.0, SVG Export Plug-In . SVG Version: 6.00 Build 0)  -->
<!DOCTYPE svg PUBLIC "-//W3C//DTD SVG 1.0//EN" "http://www.w3.org/TR/2001/REC-SVG-20010904/DTD/svg10.dtd">
<svg version="1.0" id="Layer_1" xmlns="http://www.w3.org/2000/svg" xmlns:xlink="http://www.w3.org/1999/xlink" x="0px" y="0px"
	 width="202px" height="202px" viewBox="0 0 202 202" enable-background="new 0 0 202 202" xml:space="preserve">
<g>
	<path fill="none" stroke="#000000" stroke-width="35" stroke-linecap="round" stroke-linejoin="round" stroke-miterlimit="3" d="
		M579.85,733.8l-80.3,162.3c-25.2-0.198-44.7-10.398-58.5-30.6c-13.898-20.366-20.966-44.7-21.2-73
		c-0.198-24.5,5.234-45.066,16.302-61.7"/>
</g>
<g>
	<path d="M46.8,201.824h-0.5c-9.665,0-17.5-7.835-17.5-17.5s7.835-17.5,17.5-17.5h0.5c10.177,0,18.194-3.247,25.221-10.219
		c7.936-8.156,11.799-22.065,11.481-41.343c-0.001-0.096-0.002-0.192-0.002-0.288v-32.7c0-0.098,0.001-0.196,0.002-0.293
		c0.443-26.42,7.69-46.993,21.542-61.146c0.05-0.052,0.102-0.103,0.152-0.154C118.848,7.075,135.688,0.176,155.25,0.176h0.45
		c9.665,0,17.5,7.835,17.5,17.5s-7.835,17.5-17.5,17.5h-0.45c-10.207,0-18.238,3.247-25.266,10.215
		c-7.314,7.532-11.179,19.991-11.484,37.036v32.409c0.45,28.966-6.8,51.286-21.55,66.339c-0.048,0.049-0.097,0.098-0.146,0.146
		C83.154,194.926,66.331,201.824,46.8,201.824z"/>
</g>
</svg>
