<?xml version="1.0" encoding="utf-8"?>
<!-- Generator: Adobe Illustrator 15.0.0, SVG Export Plug-In . SVG Version: 6.00 Build 0)  -->
<!DOCTYPE svg PUBLIC "-//W3C//DTD SVG 1.1//EN" "http://www.w3.org/Graphics/SVG/1.1/DTD/svg11.dtd">
<svg version="1.1" id="Layer_1" xmlns="http://www.w3.org/2000/svg" xmlns:xlink="http://www.w3.org/1999/xlink" x="0px" y="0px"
	 width="202px" height="202px" viewBox="0 0 202 202" enable-background="new 0 0 202 202" xml:space="preserve">
<g>
	<path d="M118.4,201.975c-26.957,0-50.236-10.043-69.193-29.849C30.428,152.544,20.9,128.601,20.9,100.975
		c0-27.594,9.528-51.52,28.32-71.113C68.163,10.068,91.443,0.025,118.4,0.025c20.682,0,39.366,5.998,55.533,17.827
		c7.8,5.707,9.496,16.657,3.789,24.457c-5.706,7.8-16.655,9.499-24.457,3.79c-10.184-7.451-21.588-11.073-34.865-11.073
		c-17.277,0-31.64,6.231-43.907,19.05C61.978,67.125,55.9,82.461,55.9,100.975c0,18.547,6.078,33.9,18.581,46.937
		c12.281,12.831,26.643,19.063,43.92,19.063c6.967,0,13.41-0.994,19.441-3.015l-8.61-17.591c-4.249-8.681-0.656-19.162,8.024-23.411
		c8.683-4.248,19.163-0.656,23.411,8.024l16.201,33.1c3.845,7.854,1.301,17.341-5.957,22.219
		C155.434,196.701,137.767,201.975,118.4,201.975z"/>
</g>
</svg>
