<?xml version="1.0" encoding="utf-8"?>
<!-- Generator: Adobe Illustrator 15.0.0, SVG Export Plug-In . SVG Version: 6.00 Build 0)  -->
<!DOCTYPE svg PUBLIC "-//W3C//DTD SVG 1.0//EN" "http://www.w3.org/TR/2001/REC-SVG-20010904/DTD/svg10.dtd">
<svg version="1.0" id="Layer_1" xmlns="http://www.w3.org/2000/svg" xmlns:xlink="http://www.w3.org/1999/xlink" x="0px" y="0px"
	 width="202px" height="202px" viewBox="0 0 202 202" enable-background="new 0 0 202 202" xml:space="preserve">
<g>
	<path fill="none" stroke="#000000" stroke-width="35" stroke-linecap="round" stroke-linejoin="round" stroke-miterlimit="3" d="
		M579.85,733.8l-80.3,162.3c-25.2-0.198-44.7-10.398-58.5-30.6c-13.898-20.366-20.966-44.7-21.2-73
		c-0.198-24.5,5.234-45.066,16.302-61.7"/>
</g>
<g>
	<path d="M141.66,201.025c-9.665,0-17.5-7.835-17.5-17.5v-95.7c0-0.144,0.002-0.288,0.005-0.432
		c0.595-24.085-9.356-33.819-16.935-39.039C94.781,40.026,79.66,35.976,61.009,35.976h-0.7c-9.665,0-17.5-7.835-17.5-17.5
		s7.835-17.5,17.5-17.5h0.7c25.5,0,47.639,6.18,65.801,18.368c0.051,0.034,0.102,0.068,0.151,0.103
		c15.174,10.414,33.061,30.761,32.199,68.587v95.492C159.16,193.19,151.325,201.025,141.66,201.025z"/>
</g>
</svg>
