<?xml version="1.0" encoding="utf-8"?>
<!-- Generator: Adobe Illustrator 15.0.0, SVG Export Plug-In . SVG Version: 6.00 Build 0)  -->
<!DOCTYPE svg PUBLIC "-//W3C//DTD SVG 1.0//EN" "http://www.w3.org/TR/2001/REC-SVG-20010904/DTD/svg10.dtd">
<svg version="1.0" id="Layer_1" xmlns="http://www.w3.org/2000/svg" xmlns:xlink="http://www.w3.org/1999/xlink" x="0px" y="0px"
	 width="202px" height="202px" viewBox="0 0 202 202" enable-background="new 0 0 202 202" xml:space="preserve">
<g>
	<path fill="none" stroke="#000000" stroke-width="35" stroke-linecap="round" stroke-linejoin="round" stroke-miterlimit="3" d="
		M579.85,733.8l-80.3,162.3c-25.2-0.198-44.7-10.398-58.5-30.6c-13.898-20.366-20.966-44.7-21.2-73
		c-0.198-24.5,5.234-45.066,16.302-61.7"/>
</g>
<g>
	<path d="M101.025,198.8c-11.713,0-22.991-1.687-33.521-5.013c-0.042-0.014-0.084-0.027-0.125-0.041
		c-22.521-7.301-36.135-25.135-38.336-50.217c-1.235-13.977,1.561-36.452,26.808-52.791c-14.085-11.638-17.63-25.496-17.37-37.032
		c0.438-18.831,8.803-30.023,15.744-36.099c9.16-8.018,21.98-12.713,38.107-13.956c30.766-2.286,52.563,4.469,64.846,20.075
		c5.978,7.595,4.666,18.597-2.929,24.575s-18.598,4.667-24.575-2.928c-4.441-5.644-17.09-8.131-34.701-6.821
		c-21.167,1.631-21.36,9.91-21.5,15.955c-0.232,10.341,15.769,16.535,29.378,19.924c0.854,0.18,1.724,0.393,2.593,0.633
		c0.267,0.07,0.53,0.146,0.793,0.228l1.108,0.326c2.549,0.646,5.206,1.322,7.972,2.029c0.079,0.021,0.159,0.042,0.238,0.063
		c53.723,14.562,59.025,47.496,57.404,65.832c-2.249,25.087-15.881,42.909-38.386,50.205c-0.036,0.012-0.072,0.023-0.108,0.035
		C123.961,197.111,112.71,198.8,101.025,198.8z M78.108,160.432c7.098,2.235,14.808,3.368,22.917,3.368
		c8.071,0,15.743-1.132,22.804-3.364c6.681-2.176,13.021-6.12,14.267-19.998c0.523-5.927,1.753-19.847-31.585-28.916
		c-1.887-0.482-3.724-0.95-5.508-1.404c-1.772,0.452-3.587,0.919-5.446,1.399c-33.406,9.07-32.175,22.994-31.649,28.942
		C65.124,154.318,71.444,158.26,78.108,160.432z"/>
</g>
</svg>
