<?xml version="1.0" encoding="utf-8"?>
<!-- Generator: Adobe Illustrator 15.0.0, SVG Export Plug-In . SVG Version: 6.00 Build 0)  -->
<!DOCTYPE svg PUBLIC "-//W3C//DTD SVG 1.0//EN" "http://www.w3.org/TR/2001/REC-SVG-20010904/DTD/svg10.dtd">
<svg version="1.0" id="Layer_1" xmlns="http://www.w3.org/2000/svg" xmlns:xlink="http://www.w3.org/1999/xlink" x="0px" y="0px"
	 width="202px" height="202px" viewBox="0 0 202 202" enable-background="new 0 0 202 202" xml:space="preserve">
<g>
	<path fill="none" stroke="#000000" stroke-width="35" stroke-linecap="round" stroke-linejoin="round" stroke-miterlimit="3" d="
		M579.85,733.8l-80.3,162.3c-25.2-0.198-44.7-10.398-58.5-30.6c-13.898-20.366-20.966-44.7-21.2-73
		c-0.198-24.5,5.234-45.066,16.302-61.7"/>
</g>
<g>
	<path d="M149.124,200.9c-9.665,0-17.5-7.835-17.5-17.5v-57.959c-42.979,0.832-71.188-8.701-85.906-28.952
		c-0.021-0.029-0.042-0.059-0.064-0.089c-3.19-4.447-5.593-9.007-7.143-13.552c-2.085-6.16-3.137-12.708-3.137-19.499
		c0-17.11,6.799-32.497,19.663-44.497c0.026-0.024,0.053-0.049,0.08-0.074C67.701,7.184,82.934,1.236,100.389,1.101
		c9.663-0.05,17.561,7.699,17.635,17.364c0.075,9.665-7.699,17.56-17.364,17.635c-8.712,0.067-15.637,2.731-21.788,8.383
		c-5.798,5.424-8.499,11.421-8.499,18.868c0,3.008,0.417,5.703,1.276,8.239c0.289,0.847,0.954,2.325,2.411,4.365
		c5.036,6.883,21.288,17.759,73.593,13.65c0.455-0.036,0.913-0.054,1.37-0.054h0.101c9.665,0,17.5,7.835,17.5,17.5v76.35
		C166.624,193.065,158.789,200.9,149.124,200.9z"/>
</g>
</svg>
