<?xml version="1.0" encoding="utf-8"?>
<!-- Generator: Adobe Illustrator 15.0.0, SVG Export Plug-In . SVG Version: 6.00 Build 0)  -->
<!DOCTYPE svg PUBLIC "-//W3C//DTD SVG 1.0//EN" "http://www.w3.org/TR/2001/REC-SVG-20010904/DTD/svg10.dtd">
<svg version="1.0" id="Layer_1" xmlns="http://www.w3.org/2000/svg" xmlns:xlink="http://www.w3.org/1999/xlink" x="0px" y="0px"
	 width="202px" height="202px" viewBox="0 0 202 202" enable-background="new 0 0 202 202" xml:space="preserve">
<g>
	<path fill="none" stroke="#000000" stroke-width="35" stroke-linecap="round" stroke-linejoin="round" stroke-miterlimit="3" d="
		M579.85,733.8l-80.3,162.3c-25.2-0.198-44.7-10.398-58.5-30.6c-13.898-20.366-20.966-44.7-21.2-73
		c-0.198-24.5,5.234-45.066,16.302-61.7"/>
</g>
<g>
	<path d="M42.028,197.1c-5.637,0-11.171-2.719-14.548-7.751C14.935,170.65,8.67,147.596,8.862,120.825
		c0.263-30.391,8.148-57.045,23.436-79.25c16.578-24.002,41.25-36.677,71.364-36.677c29.167,0,53.338,12.675,69.899,36.656
		c10.825,15.684,17.226,33.668,19.028,53.458c2.611,28.639-4.053,52.213-19.806,70.066c-16.766,19.002-42.407,25.562-76.212,19.496
		c-26.183-4.708-43.136-23.33-47.745-52.438c-1.714-10.948-1.169-21.051,1.616-30.058c2.856-9.233,12.656-14.403,21.889-11.548
		c9.234,2.856,14.404,12.656,11.548,21.89c-1.196,3.866-1.357,8.668-0.48,14.272c2.857,18.045,10.993,21.929,19.358,23.433
		c31.555,5.66,40.756-4.775,43.78-8.205c9.26-10.493,12.922-24.799,11.195-43.733c-1.268-13.915-5.512-25.935-12.975-36.749
		c-10.149-14.695-23.209-21.542-41.098-21.542c-18.877,0-32.398,6.847-42.551,21.546C49.713,78,44.065,97.521,43.861,121.102
		c-0.141,19.585,4.126,35.994,12.683,48.745c5.385,8.026,3.245,18.897-4.781,24.283C48.77,196.138,45.381,197.1,42.028,197.1z"/>
</g>
</svg>
