<?xml version="1.0" encoding="utf-8"?>
<!-- Generator: Adobe Illustrator 15.0.0, SVG Export Plug-In . SVG Version: 6.00 Build 0)  -->
<!DOCTYPE svg PUBLIC "-//W3C//DTD SVG 1.0//EN" "http://www.w3.org/TR/2001/REC-SVG-20010904/DTD/svg10.dtd">
<svg version="1.0" id="Layer_1" xmlns="http://www.w3.org/2000/svg" xmlns:xlink="http://www.w3.org/1999/xlink" x="0px" y="0px"
	 width="202px" height="202px" viewBox="0 0 202 202" enable-background="new 0 0 202 202" xml:space="preserve">
<g>
	<path fill="none" stroke="#000000" stroke-width="35" stroke-linecap="round" stroke-linejoin="round" stroke-miterlimit="3" d="
		M579.85,733.8l-80.3,162.3c-25.2-0.198-44.7-10.398-58.5-30.6c-13.898-20.366-20.966-44.7-21.2-73
		c-0.198-24.5,5.234-45.066,16.302-61.7"/>
</g>
<g>
	<path d="M94.08,198.555c-6.977,0-13.569-4.2-16.284-11.084C54.499,128.405,54.544,70.107,77.931,14.197
		C80.653,7.688,87.019,3.45,94.075,3.45h30.1c9.665,0,17.5,7.835,17.5,17.5s-7.835,17.5-17.5,17.5h-18.111
		c-15.747,44.328-14.318,88.999,4.291,136.179c3.546,8.991-0.867,19.154-9.858,22.7C98.389,198.16,96.216,198.555,94.08,198.555z"/>
</g>
</svg>
