<?xml version="1.0" encoding="utf-8"?>
<!-- Generator: Adobe Illustrator 15.0.0, SVG Export Plug-In . SVG Version: 6.00 Build 0)  -->
<!DOCTYPE svg PUBLIC "-//W3C//DTD SVG 1.0//EN" "http://www.w3.org/TR/2001/REC-SVG-20010904/DTD/svg10.dtd">
<svg version="1.0" id="Layer_1" xmlns="http://www.w3.org/2000/svg" xmlns:xlink="http://www.w3.org/1999/xlink" x="0px" y="0px"
	 width="202px" height="202px" viewBox="0 0 202 202" enable-background="new 0 0 202 202" xml:space="preserve">
<g>
	<path fill="none" stroke="#000000" stroke-width="35" stroke-linecap="round" stroke-linejoin="round" stroke-miterlimit="3" d="
		M579.85,733.8l-80.3,162.3c-25.2-0.198-44.7-10.398-58.5-30.6c-13.898-20.366-20.966-44.7-21.2-73
		c-0.198-24.5,5.234-45.066,16.302-61.7"/>
</g>
<g>
	<path d="M107.92,198.555c-2.137,0-4.309-0.395-6.416-1.226c-8.991-3.546-13.405-13.709-9.858-22.7
		c18.608-47.18,20.038-91.851,4.292-136.179H77.825c-9.665,0-17.5-7.835-17.5-17.5s7.835-17.5,17.5-17.5h30.1
		c7.056,0,13.422,4.237,16.145,10.747c23.387,55.91,23.432,114.208,0.135,173.273C121.489,194.354,114.896,198.555,107.92,198.555z"
		/>
</g>
</svg>
