<?xml version="1.0" encoding="utf-8"?>
<!-- Generator: Adobe Illustrator 15.0.0, SVG Export Plug-In . SVG Version: 6.00 Build 0)  -->
<!DOCTYPE svg PUBLIC "-//W3C//DTD SVG 1.0//EN" "http://www.w3.org/TR/2001/REC-SVG-20010904/DTD/svg10.dtd">
<svg version="1.0" id="Layer_1" xmlns="http://www.w3.org/2000/svg" xmlns:xlink="http://www.w3.org/1999/xlink" x="0px" y="0px"
	 width="202px" height="202px" viewBox="0 0 202 202" enable-background="new 0 0 202 202" xml:space="preserve">
<g>
	<path d="M164.635,201.052c-3.345,0-6.724-0.956-9.712-2.955c-8.034-5.372-10.192-16.24-4.819-24.274
		c9.055-13.542,13.546-30.972,13.348-51.807c-0.177-24.967-6.125-45.633-18.184-63.219C134.531,43.142,120.211,35.85,100.2,35.85
		c-18.954,0-32.782,7.292-43.518,22.947C44.656,76.377,38.705,97.054,38.5,121.994c-0.198,20.856,4.293,38.286,13.348,51.828
		c5.373,8.034,3.214,18.902-4.82,24.275c-8.036,5.369-18.903,3.212-24.275-4.82c-13.041-19.502-19.518-43.59-19.251-71.594
		c0.261-31.65,8.438-59.47,24.305-82.665C44.934,14.043,69.963,0.85,100.2,0.85c31.249,0,56.814,13.193,73.932,38.152
		c15.912,23.205,24.094,51.037,24.318,82.724c0.266,27.962-6.212,52.05-19.253,71.552
		C175.823,198.323,170.28,201.052,164.635,201.052z"/>
</g>
</svg>
