<?xml version="1.0" encoding="utf-8"?>
<!-- Generator: Adobe Illustrator 15.0.0, SVG Export Plug-In . SVG Version: 6.00 Build 0)  -->
<!DOCTYPE svg PUBLIC "-//W3C//DTD SVG 1.1//EN" "http://www.w3.org/Graphics/SVG/1.1/DTD/svg11.dtd">
<svg version="1.1" id="Layer_1" xmlns="http://www.w3.org/2000/svg" xmlns:xlink="http://www.w3.org/1999/xlink" x="0px" y="0px"
	 width="202px" height="202px" viewBox="0 0 202 202" enable-background="new 0 0 202 202" xml:space="preserve">
<g>
	<path d="M37.319,201.151c-5.661,0-11.215-2.741-14.586-7.809C9.745,173.822,3.275,149.754,3.503,121.808
		c0.262-31.703,8.418-59.534,24.245-82.723C44.671,14.313,69.849,1.094,100.564,0.851c6.671-0.067,12.85,3.729,15.823,9.739
		l80.3,162.298c4.285,8.663,0.737,19.16-7.925,23.446c-8.665,4.285-19.16,0.735-23.446-7.925L90.267,36.722
		c-14.192,2.358-25.03,9.535-33.614,22.1c-12.006,17.591-17.944,38.29-18.15,63.273c-0.17,20.821,4.328,38.271,13.37,51.861
		c5.354,8.046,3.171,18.909-4.876,24.263C44.017,200.202,40.649,201.151,37.319,201.151z"/>
</g>
</svg>
