<?xml version="1.0" encoding="utf-8"?>
<!-- Generator: Adobe Illustrator 15.0.0, SVG Export Plug-In . SVG Version: 6.00 Build 0)  -->
<!DOCTYPE svg PUBLIC "-//W3C//DTD SVG 1.0//EN" "http://www.w3.org/TR/2001/REC-SVG-20010904/DTD/svg10.dtd">
<svg version="1.0" id="Layer_1" xmlns="http://www.w3.org/2000/svg" xmlns:xlink="http://www.w3.org/1999/xlink" x="0px" y="0px"
	 width="202px" height="202px" viewBox="0 0 202 202" enable-background="new 0 0 202 202" xml:space="preserve">
<g>
	<path fill="none" stroke="#000000" stroke-width="35" stroke-linecap="round" stroke-linejoin="round" stroke-miterlimit="3" d="
		M579.85,733.8l-80.3,162.3c-25.2-0.198-44.7-10.398-58.5-30.6c-13.898-20.366-20.966-44.7-21.2-73
		c-0.198-24.5,5.234-45.066,16.302-61.7"/>
</g>
<g>
	<path d="M82.16,184.85c-0.19,0-0.38-0.003-0.572-0.009c-9.66-0.311-17.239-8.393-16.929-18.053
		c0.484-15.064,6.061-29.762,16.577-43.685c2.725-3.61,5.61-6.972,8.638-10.067l-5.079-8.631c-3.749,1.033-7.627,1.862-11.616,2.48
		c-17.242,2.77-32.842,0.783-46.373-5.893c-8.667-4.277-12.226-14.77-7.949-23.438c4.277-8.667,14.77-12.225,23.438-7.949
		c6.615,3.265,14.397,4.237,23.756,2.957L53.37,51.029c-4.904-8.328-2.128-19.055,6.201-23.959
		c8.33-4.902,19.056-2.127,23.959,6.201l14.477,24.586c5.308-5.441,7.276-11.498,6.308-19.406c-1.264-5.708,0.36-11.92,4.847-16.31
		c6.907-6.759,17.986-6.639,24.747,0.27c2.805,2.867,4.533,6.537,4.977,10.495c2.778,19.728-3.219,37.324-17.359,50.913
		c-1.74,1.672-3.551,3.265-5.426,4.774l2.781,4.727c1.813-0.736,3.65-1.408,5.512-2.012c18.825-6.104,37.308-3.019,53.458,8.922
		c7.771,5.746,9.414,16.704,3.669,24.475c-5.748,7.772-16.705,9.412-24.476,3.669c-6.531-4.828-12.784-6.186-20.054-4.3
		l15.785,26.792c4.906,8.327,2.134,19.056-6.193,23.962c-8.33,4.904-19.055,2.132-23.961-6.194l-13.982-23.731
		c-5.812,7.899-8.755,15.432-8.999,23.009C99.337,177.38,91.565,184.85,82.16,184.85z"/>
</g>
</svg>
