<?xml version="1.0" encoding="utf-8"?>
<!-- Generator: Adobe Illustrator 15.0.0, SVG Export Plug-In . SVG Version: 6.00 Build 0)  -->
<!DOCTYPE svg PUBLIC "-//W3C//DTD SVG 1.1//EN" "http://www.w3.org/Graphics/SVG/1.1/DTD/svg11.dtd">
<svg version="1.1" id="Layer_1" xmlns="http://www.w3.org/2000/svg" xmlns:xlink="http://www.w3.org/1999/xlink" x="0px" y="0px"
	 width="202px" height="202px" viewBox="0 0 202 202" enable-background="new 0 0 202 202" xml:space="preserve">
<g>
	<path fill="none" stroke="#000000" stroke-width="35" stroke-linecap="round" stroke-linejoin="round" stroke-miterlimit="3" d="
		M579.85,733.8l-80.3,162.3c-25.2-0.197-44.7-10.397-58.5-30.6c-13.897-20.366-20.966-44.7-21.2-73
		c-0.197-24.5,5.234-45.066,16.303-61.7"/>
</g>
<g>
	<path d="M102.917,181.853c-5.899,0-11.657-2.982-14.955-8.387c-5.648-9.255-8.512-19.74-8.512-31.165
		c0-9.966,2.134-19.119,6.367-27.369c-6.42,2.524-13.326,3.819-20.567,3.819c-12.234,0-23.29-3.565-32.861-10.598
		c-7.789-5.723-9.464-16.675-3.742-24.464c5.722-7.789,16.674-9.465,24.464-3.742c3.532,2.595,7.389,3.803,12.139,3.803
		c6.249,0,11.035-2.085,15.519-6.762c4.618-4.836,6.781-10.337,6.781-17.288c0-4.992-1.103-9.241-3.372-12.992
		c-5.003-8.27-2.355-19.029,5.914-24.032c8.269-5.004,19.03-2.356,24.032,5.914c5.592,9.242,8.427,19.709,8.427,31.11
		c0,9.966-2.135,19.119-6.367,27.369c6.422-2.525,13.326-3.819,20.567-3.819c12.235,0,23.292,3.566,32.862,10.599
		c7.789,5.723,9.463,16.676,3.739,24.464c-5.723,7.789-16.678,9.461-24.464,3.739c-3.531-2.594-7.388-3.802-12.138-3.802
		c-6.248,0-11.034,2.085-15.52,6.762c-4.618,4.836-6.78,10.338-6.78,17.288c0,4.967,1.108,9.196,3.388,12.933
		c5.035,8.25,2.429,19.02-5.821,24.054C109.171,181.024,106.023,181.853,102.917,181.853z"/>
	<path d="M140.907,162.9c-4.868,0-9.712-2.021-13.172-5.971l-81.051-92.55c-6.368-7.271-5.635-18.327,1.636-24.694
		c7.271-6.368,18.327-5.635,24.694,1.636l81.051,92.55c6.368,7.271,5.636,18.327-1.636,24.694
		C149.109,161.474,145,162.9,140.907,162.9z"/>
</g>
</svg>
