<?xml version="1.0" encoding="utf-8"?>
<!-- Generator: Adobe Illustrator 15.0.0, SVG Export Plug-In . SVG Version: 6.00 Build 0)  -->
<!DOCTYPE svg PUBLIC "-//W3C//DTD SVG 1.1//EN" "http://www.w3.org/Graphics/SVG/1.1/DTD/svg11.dtd">
<svg version="1.1" id="Layer_1" xmlns="http://www.w3.org/2000/svg" xmlns:xlink="http://www.w3.org/1999/xlink" x="0px" y="0px"
	 width="202px" height="202px" viewBox="0 0 202 202" enable-background="new 0 0 202 202" xml:space="preserve">
<g>
	<path d="M116.85,198.5c-0.954,0-1.922-0.021-2.88-0.063c-0.168-0.007-0.336-0.016-0.503-0.026c-0.505-0.03-0.984-0.061-1.44-0.091
		c-23.793-1.196-44.698-9.83-62.139-25.663C30.726,155.317,21,131.454,21,101.75V101c0-0.039,0-0.077,0-0.115
		c0.2-30.318,9.923-54.409,28.899-71.603c18.601-16.83,41.059-25.5,66.759-25.781c1.561-0.003,3.068,0.015,4.547,0.05
		c0.505,0.004,1.008,0.021,1.504,0.049h40.79c9.665,0,17.5,7.835,17.5,17.5s-7.835,17.5-17.5,17.5h-41.4
		c-0.444,0-0.889-0.017-1.332-0.051c-0.084-0.001-0.168-0.002-0.252-0.004c-1.161-0.029-2.351-0.043-3.567-0.044
		c-17.095,0.206-31.345,5.678-43.557,16.727C61.836,65.697,56.144,80.692,56,101.062v0.688c0,19.672,5.689,34.384,17.393,44.975
		c11.498,10.438,24.743,15.877,40.511,16.646c0.113,0.006,0.228,0.013,0.341,0.021c0.297,0.02,0.606,0.04,0.929,0.06H163.5
		c9.665,0,17.5,7.835,17.5,17.5s-7.835,17.5-17.5,17.5h-42.338C119.758,198.483,118.32,198.5,116.85,198.5z"/>
</g>
</svg>
