<?xml version="1.0" encoding="utf-8"?>
<!-- Generator: Adobe Illustrator 15.0.0, SVG Export Plug-In . SVG Version: 6.00 Build 0)  -->
<!DOCTYPE svg PUBLIC "-//W3C//DTD SVG 1.0//EN" "http://www.w3.org/TR/2001/REC-SVG-20010904/DTD/svg10.dtd">
<svg version="1.0" id="Layer_1" xmlns="http://www.w3.org/2000/svg" xmlns:xlink="http://www.w3.org/1999/xlink" x="0px" y="0px"
	 width="202px" height="202px" viewBox="0 0 202 202" enable-background="new 0 0 202 202" xml:space="preserve">
<g>
	<path d="M122.493,199.005c-0.464,0-0.925-0.002-1.392-0.006c-30.93-0.262-58.066-8.555-80.654-24.646
		C15.93,156.876,3.5,132.45,3.5,101.75c0-31.696,12.43-56.627,36.944-74.101C63.037,11.556,90.172,3.264,121.102,3
		c27.281-0.238,50.818,6.354,69.872,19.57c7.941,5.508,9.914,16.412,4.406,24.354c-5.509,7.941-16.412,9.916-24.354,4.405
		c-13.178-9.14-29.366-13.501-49.629-13.33c-23.943,0.204-43.78,6.142-60.643,18.154C45.573,66.975,38.5,81.464,38.5,101.75
		c0,19.262,7.073,33.274,22.259,44.1c16.858,12.01,36.695,17.948,60.64,18.151c20.265,0.142,36.466-4.178,49.647-13.294
		c7.95-5.497,18.851-3.51,24.347,4.438c5.498,7.948,3.511,18.85-4.438,24.347C172.23,192.442,149.2,199.005,122.493,199.005z"/>
</g>
</svg>
