<?xml version="1.0" encoding="utf-8"?>
<!-- Generator: Adobe Illustrator 15.0.0, SVG Export Plug-In . SVG Version: 6.00 Build 0)  -->
<!DOCTYPE svg PUBLIC "-//W3C//DTD SVG 1.0//EN" "http://www.w3.org/TR/2001/REC-SVG-20010904/DTD/svg10.dtd">
<svg version="1.0" id="Layer_1" xmlns="http://www.w3.org/2000/svg" xmlns:xlink="http://www.w3.org/1999/xlink" x="0px" y="0px"
	 width="202px" height="202px" viewBox="0 0 202 202" enable-background="new 0 0 202 202" xml:space="preserve">
<g>
	<path fill="none" stroke="#000000" stroke-width="35" stroke-linecap="round" stroke-linejoin="round" stroke-miterlimit="3" d="
		M579.85,733.8l-80.3,162.3c-25.2-0.198-44.7-10.398-58.5-30.6c-13.898-20.366-20.966-44.7-21.2-73
		c-0.198-24.5,5.234-45.066,16.302-61.7"/>
</g>
<g>
	<path d="M134.25,67.6c-9.665,0-17.5-7.835-17.5-17.5V20c0-9.665,7.835-17.5,17.5-17.5s17.5,7.835,17.5,17.5v30.1
		C151.75,59.765,143.915,67.6,134.25,67.6z M67.75,67.6c-9.665,0-17.5-7.835-17.5-17.5V20c0-9.665,7.835-17.5,17.5-17.5
		s17.5,7.835,17.5,17.5v30.1C85.25,59.765,77.415,67.6,67.75,67.6z"/>
</g>
</svg>
