<?xml version="1.0" encoding="utf-8"?>
<!-- Generator: Adobe Illustrator 15.0.0, SVG Export Plug-In . SVG Version: 6.00 Build 0)  -->
<!DOCTYPE svg PUBLIC "-//W3C//DTD SVG 1.1//EN" "http://www.w3.org/Graphics/SVG/1.1/DTD/svg11.dtd">
<svg version="1.1" id="Layer_1" xmlns="http://www.w3.org/2000/svg" xmlns:xlink="http://www.w3.org/1999/xlink" x="0px" y="0px"
	 width="202px" height="202px" viewBox="0 0 202 202" enable-background="new 0 0 202 202" xml:space="preserve">
<g>
	<path d="M85.149,198.5c-1.47,0-2.908-0.017-4.312-0.05H38.5c-9.665,0-17.5-7.835-17.5-17.5s7.835-17.5,17.5-17.5h48.327
		c0.323-0.02,0.632-0.04,0.929-0.06c0.113-0.008,0.227-0.015,0.341-0.021c15.768-0.769,29.013-6.208,40.49-16.627
		C140.311,136.134,146,121.422,146,101.75v-0.688c-0.144-20.37-5.836-35.365-17.401-45.844
		C116.396,44.177,102.146,38.706,85.052,38.5c-1.217,0.001-2.406,0.016-3.566,0.044c-0.084,0.002-0.169,0.003-0.254,0.004
		c-0.443,0.034-0.887,0.051-1.332,0.051H38.5c-9.665,0-17.5-7.835-17.5-17.5S28.835,3.6,38.5,3.6h40.791
		c0.496-0.028,0.999-0.044,1.503-0.049c1.479-0.035,3.004-0.054,4.546-0.05c25.7,0.28,48.158,8.951,66.751,25.772
		C171.076,46.476,180.8,70.567,181,100.885c0,0.039,0,0.077,0,0.115v0.75c0,29.704-9.726,53.567-28.908,70.926
		c-17.42,15.814-38.325,24.448-62.118,25.645c-0.456,0.03-0.936,0.061-1.44,0.091c-0.166,0.011-0.333,0.02-0.5,0.026
		C87.076,198.479,86.106,198.5,85.149,198.5z"/>
</g>
</svg>
