<?xml version="1.0" encoding="utf-8"?>
<!-- Generator: Adobe Illustrator 15.0.0, SVG Export Plug-In . SVG Version: 6.00 Build 0)  -->
<!DOCTYPE svg PUBLIC "-//W3C//DTD SVG 1.0//EN" "http://www.w3.org/TR/2001/REC-SVG-20010904/DTD/svg10.dtd">
<svg version="1.0" id="Layer_1" xmlns="http://www.w3.org/2000/svg" xmlns:xlink="http://www.w3.org/1999/xlink" x="0px" y="0px"
	 width="202px" height="202px" viewBox="0 0 202 202" enable-background="new 0 0 202 202" xml:space="preserve">
<g>
	<path d="M79.469,199.005c-26.688,0-49.708-6.583-68.441-19.575c-7.942-5.508-9.915-16.411-4.407-24.353
		c5.508-7.943,16.411-9.916,24.353-4.407c13.179,9.14,29.387,13.48,49.579,13.331c23.944-0.203,43.781-6.142,60.645-18.154
		c15.217-10.83,22.302-25.317,22.302-45.597c0-19.257-7.085-33.268-22.296-44.091C124.333,44.141,104.496,38.203,80.551,38
		c-20.197-0.181-36.414,4.179-49.599,13.294c-7.95,5.499-18.85,3.508-24.347-4.441c-5.497-7.95-3.508-18.85,4.441-24.347
		C30.099,9.333,53.559,2.769,80.848,3c30.93,0.263,58.066,8.555,80.655,24.646C186.05,45.113,198.5,69.542,198.5,100.25
		c0,31.701-12.449,56.635-37.002,74.107c-22.583,16.087-49.719,24.38-80.648,24.642C80.389,199.003,79.928,199.005,79.469,199.005z"
		/>
</g>
</svg>
