<?xml version="1.0" encoding="utf-8"?>
<!-- Generator: Adobe Illustrator 15.0.0, SVG Export Plug-In . SVG Version: 6.00 Build 0)  -->
<!DOCTYPE svg PUBLIC "-//W3C//DTD SVG 1.0//EN" "http://www.w3.org/TR/2001/REC-SVG-20010904/DTD/svg10.dtd">
<svg version="1.0" id="Layer_1" xmlns="http://www.w3.org/2000/svg" xmlns:xlink="http://www.w3.org/1999/xlink" x="0px" y="0px"
	 width="202px" height="202px" viewBox="0 0 202 202" enable-background="new 0 0 202 202" xml:space="preserve">
<g>
	<path d="M181,199.05H21c-9.665,0-17.5-7.835-17.5-17.5s7.835-17.5,17.5-17.5h160c9.665,0,17.5,7.835,17.5,17.5
		S190.665,199.05,181,199.05z M181,118.95H21c-9.665,0-17.5-7.835-17.5-17.5s7.835-17.5,17.5-17.5h160c9.665,0,17.5,7.835,17.5,17.5
		S190.665,118.95,181,118.95z M181,37.95H21c-9.665,0-17.5-7.835-17.5-17.5S11.335,2.95,21,2.95h160c9.665,0,17.5,7.835,17.5,17.5
		S190.665,37.95,181,37.95z"/>
</g>
</svg>
