<?xml version="1.0" encoding="utf-8"?>
<!-- Generator: Adobe Illustrator 15.0.0, SVG Export Plug-In . SVG Version: 6.00 Build 0)  -->
<!DOCTYPE svg PUBLIC "-//W3C//DTD SVG 1.0//EN" "http://www.w3.org/TR/2001/REC-SVG-20010904/DTD/svg10.dtd">
<svg version="1.0" id="Layer_1" xmlns="http://www.w3.org/2000/svg" xmlns:xlink="http://www.w3.org/1999/xlink" x="0px" y="0px"
	 width="202px" height="202px" viewBox="0 0 202 202" enable-background="new 0 0 202 202" xml:space="preserve">
<g>
	<path d="M118.604,199.005c-0.403,0-0.806-0.002-1.211-0.006c-26.603-0.275-49.87-8.921-69.155-25.695
		c-20.024-17.494-30.164-41.56-30.164-71.554c0-30.988,10.139-55.558,30.135-73.029c19.314-16.799,42.582-25.444,69.184-25.72
		c23.664-0.249,43.943,6.688,60.351,20.603c7.371,6.251,8.278,17.294,2.027,24.666c-6.253,7.37-17.294,8.278-24.666,2.027
		c-9.755-8.273-21.703-12.302-36.498-12.302c-0.284,0-0.566,0.001-0.852,0.004c-18.306,0.19-33.532,5.785-46.547,17.105
		C59.016,65.757,53.074,81.023,53.074,101.75c0,19.718,5.941,34.493,18.163,45.171c12.985,11.295,28.211,16.891,46.519,17.08
		c9.88,0.096,18.584-1.573,26.167-5.09l-9.371-19.179c-4.243-8.684-0.643-19.163,8.041-23.406
		c8.685-4.242,19.163-0.642,23.406,8.041l16.148,33.05c3.518,7.2,1.695,15.87-4.424,21.045
		C161.602,192.097,141.715,199.005,118.604,199.005z"/>
</g>
</svg>
