<?xml version="1.0" encoding="utf-8"?>
<!-- Generator: Adobe Illustrator 15.0.0, SVG Export Plug-In . SVG Version: 6.00 Build 0)  -->
<!DOCTYPE svg PUBLIC "-//W3C//DTD SVG 1.0//EN" "http://www.w3.org/TR/2001/REC-SVG-20010904/DTD/svg10.dtd">
<svg version="1.0" id="Layer_1" xmlns="http://www.w3.org/2000/svg" xmlns:xlink="http://www.w3.org/1999/xlink" x="0px" y="0px"
	 width="202px" height="202px" viewBox="0 0 202 202" enable-background="new 0 0 202 202" xml:space="preserve">
<g>
	<path d="M61.01,201.025h-0.7c-9.665,0-17.5-7.835-17.5-17.5s7.835-17.5,17.5-17.5h0.7c18.652,0,33.757-4.051,46.173-12.381
		c7.595-5.217,17.577-14.945,16.981-39.036c-0.003-0.145-0.005-0.288-0.005-0.433V18.475c0-9.665,7.835-17.5,17.5-17.5
		s17.5,7.835,17.5,17.5v95.495c0.861,37.831-17.059,58.182-32.261,68.594c-0.04,0.027-0.081,0.055-0.122,0.083
		C108.645,194.842,86.517,201.025,61.01,201.025z"/>
</g>
</svg>
