<?xml version="1.0" encoding="utf-8"?>
<!-- Generator: Adobe Illustrator 15.0.0, SVG Export Plug-In . SVG Version: 6.00 Build 0)  -->
<!DOCTYPE svg PUBLIC "-//W3C//DTD SVG 1.1//EN" "http://www.w3.org/Graphics/SVG/1.1/DTD/svg11.dtd">
<svg version="1.1" id="Layer_1" xmlns="http://www.w3.org/2000/svg" xmlns:xlink="http://www.w3.org/1999/xlink" x="0px" y="0px"
	 width="202px" height="202px" viewBox="0 0 202 202" enable-background="new 0 0 202 202" xml:space="preserve">
<g>
	<path d="M60.55,192.475c-9.665,0-17.5-7.835-17.5-17.5v-61.552c-0.033-1.5-0.05-2.999-0.05-4.497c0-1.564,0.017-3.113,0.05-4.646
		V27.025c0-9.665,7.835-17.5,17.5-17.5s17.5,7.835,17.5,17.5v47.791l34.478-24.63c7.864-5.618,18.793-3.798,24.412,4.067
		c5.618,7.864,3.798,18.794-4.066,24.412L81.54,115.336c6.854,11.005,15.919,19.881,27.491,26.96
		c11.721,7.206,23.599,11.839,35.339,13.791c9.534,1.585,15.979,10.6,14.393,20.133c-1.586,9.534-10.605,15.98-20.133,14.393
		c-16.224-2.697-32.338-8.915-47.896-18.479c-4.466-2.732-8.696-5.693-12.685-8.879v11.721
		C78.05,184.64,70.215,192.475,60.55,192.475z"/>
</g>
</svg>
