<?xml version="1.0" encoding="utf-8"?>
<!-- Generator: Adobe Illustrator 15.0.0, SVG Export Plug-In . SVG Version: 6.00 Build 0)  -->
<!DOCTYPE svg PUBLIC "-//W3C//DTD SVG 1.0//EN" "http://www.w3.org/TR/2001/REC-SVG-20010904/DTD/svg10.dtd">
<svg version="1.0" id="Layer_1" xmlns="http://www.w3.org/2000/svg" xmlns:xlink="http://www.w3.org/1999/xlink" x="0px" y="0px"
	 width="202px" height="202px" viewBox="0 0 202 202" enable-background="new 0 0 202 202" xml:space="preserve">
<g>
	<path d="M34.899,192.475c-9.665,0-17.5-7.835-17.5-17.5v-61.6c-0.032-1.479-0.049-2.96-0.05-4.438c0-1.575,0.018-3.124,0.051-4.654
		V27.025c0-9.665,7.835-17.5,17.5-17.5s17.5,7.835,17.5,17.5v47.791l34.477-24.63c7.865-5.617,18.795-3.797,24.412,4.067
		c5.618,7.865,3.798,18.794-4.066,24.413L55.89,115.336c6.854,11.005,15.918,19.881,27.491,26.96
		c16.025,9.851,31.667,14.712,47.851,14.881c11.025,0.125,18.524-2.218,22.358-6.917c6.109-7.487,17.134-8.606,24.623-2.494
		c7.488,6.11,8.604,17.135,2.494,24.623c-10.719,13.135-27.125,19.792-48.769,19.792c-0.354,0-0.707-0.002-1.063-0.006
		c-22.404-0.233-44.537-6.977-65.791-20.042c-4.466-2.731-8.697-5.693-12.686-8.879v11.721
		C52.399,184.64,44.564,192.475,34.899,192.475z"/>
</g>
</svg>
