<?xml version="1.0" encoding="utf-8"?>
<!-- Generator: Adobe Illustrator 15.0.0, SVG Export Plug-In . SVG Version: 6.00 Build 0)  -->
<!DOCTYPE svg PUBLIC "-//W3C//DTD SVG 1.0//EN" "http://www.w3.org/TR/2001/REC-SVG-20010904/DTD/svg10.dtd">
<svg version="1.0" id="Layer_1" xmlns="http://www.w3.org/2000/svg" xmlns:xlink="http://www.w3.org/1999/xlink" x="0px" y="0px"
	 width="202px" height="202px" viewBox="0 0 202 202" enable-background="new 0 0 202 202" xml:space="preserve">
<g>
	<path fill="none" stroke="#000000" stroke-width="35" stroke-linecap="round" stroke-linejoin="round" stroke-miterlimit="3" d="
		M579.85,733.8l-80.3,162.3c-25.2-0.198-44.7-10.398-58.5-30.6c-13.898-20.366-20.966-44.7-21.2-73
		c-0.198-24.5,5.234-45.066,16.302-61.7"/>
</g>
<g>
	<path d="M61.481,170.78c-7.252,0-14.032-4.543-16.537-11.781c-3.161-9.134,1.681-19.101,10.814-22.262
		c40.622-14.058,57.764-23.146,64.835-27.861c-19.078-25.952-39.453-39.958-62.172-42.785c-9.591-1.193-16.399-9.936-15.206-19.526
		c1.194-9.591,9.943-16.4,19.526-15.206c33.945,4.223,64.146,25.078,89.766,61.986c1.412,2.03,2.545,3.831,3.454,5.489
		c3.427,6.201,3.896,13.332,1.317,20.092c-5.201,13.634-22.51,27.505-90.074,50.888C65.311,170.469,63.379,170.78,61.481,170.78z"/>
</g>
</svg>
