<?xml version="1.0" encoding="utf-8"?>
<!-- Generator: Adobe Illustrator 15.0.0, SVG Export Plug-In . SVG Version: 6.00 Build 0)  -->
<!DOCTYPE svg PUBLIC "-//W3C//DTD SVG 1.0//EN" "http://www.w3.org/TR/2001/REC-SVG-20010904/DTD/svg10.dtd">
<svg version="1.0" id="Layer_1" xmlns="http://www.w3.org/2000/svg" xmlns:xlink="http://www.w3.org/1999/xlink" x="0px" y="0px"
	 width="202px" height="202px" viewBox="0 0 202 202" enable-background="new 0 0 202 202" xml:space="preserve">
<g>
	<path fill="none" stroke="#000000" stroke-width="35" stroke-linecap="round" stroke-linejoin="round" stroke-miterlimit="3" d="
		M579.85,733.8l-80.3,162.3c-25.2-0.198-44.7-10.398-58.5-30.6c-13.898-20.366-20.966-44.7-21.2-73
		c-0.198-24.5,5.234-45.066,16.302-61.7"/>
</g>
<g>
	<path d="M140.519,170.78c-1.899,0-3.829-0.312-5.725-0.967c-67.564-23.383-84.873-37.255-90.073-50.889
		c-2.577-6.757-2.11-13.885,1.314-20.084c0.905-1.654,2.04-3.457,3.466-5.509c25.609-36.895,55.811-57.75,89.756-61.973
		c9.574-1.193,18.334,5.614,19.526,15.206c1.193,9.591-5.615,18.333-15.206,19.526c-22.722,2.827-43.1,16.838-62.172,42.785
		c7.072,4.714,24.213,13.804,64.835,27.861c9.133,3.161,13.975,13.128,10.814,22.262C154.55,166.236,147.77,170.78,140.519,170.78z"
		/>
</g>
</svg>
