<?xml version="1.0" encoding="utf-8"?>
<!-- Generator: Adobe Illustrator 15.0.0, SVG Export Plug-In . SVG Version: 6.00 Build 0)  -->
<!DOCTYPE svg PUBLIC "-//W3C//DTD SVG 1.0//EN" "http://www.w3.org/TR/2001/REC-SVG-20010904/DTD/svg10.dtd">
<svg version="1.0" id="Layer_1" xmlns="http://www.w3.org/2000/svg" xmlns:xlink="http://www.w3.org/1999/xlink" x="0px" y="0px"
	 width="202px" height="202px" viewBox="0 0 202 202" enable-background="new 0 0 202 202" xml:space="preserve">
<g>
	<path d="M180.9,201.1c-9.665,0-17.5-7.835-17.5-17.5v-54.711c0-0.397,0.014-0.795,0.041-1.192c0.007-0.104,0.01-0.215,0.01-0.329
		c0-0.11,0.001-0.22,0.003-0.33c0.031-1.631,0.047-3.304,0.047-5.016c-0.217-24.923-6.167-45.577-18.19-63.137
		c-10.639-15.481-24.751-22.793-44.39-22.982h-0.669c-18.957,0-32.802,7.308-43.572,23c-11.286,16.472-17.19,35.668-18.04,58.673
		c-0.003,0.082-0.007,0.164-0.011,0.245c-0.026,0.514-0.052,1.055-0.078,1.624v7.923c0,0.001,0,0.001,0,0.001V183.6
		c0,9.665-7.835,17.5-17.5,17.5s-17.5-7.835-17.5-17.5v-56.073c-0.033-1.815-0.05-3.675-0.05-5.577c0-1.139,0.02-2.273,0.057-3.41
		c0.004-0.146,0.01-0.289,0.018-0.433c0.031-0.686,0.062-1.335,0.093-1.949c1.105-29.355,9.229-55.278,24.147-77.051
		C44.973,14.109,70.018,0.902,100.251,0.902h0.75c0.051,0,0.102,0,0.153,0c30.789,0.27,56.038,13.473,73.02,38.184
		c15.886,23.204,24.065,51.026,24.326,82.718c0.001,0.048,0.001,0.097,0.001,0.145c0,1.911-0.017,3.779-0.05,5.602
		c-0.003,0.618-0.021,1.235-0.051,1.845V183.6C198.4,193.265,190.565,201.1,180.9,201.1z"/>
</g>
</svg>
