<?xml version="1.0" encoding="utf-8"?>
<!-- Generator: Adobe Illustrator 15.0.0, SVG Export Plug-In . SVG Version: 6.00 Build 0)  -->
<!DOCTYPE svg PUBLIC "-//W3C//DTD SVG 1.0//EN" "http://www.w3.org/TR/2001/REC-SVG-20010904/DTD/svg10.dtd">
<svg version="1.0" id="Layer_1" xmlns="http://www.w3.org/2000/svg" xmlns:xlink="http://www.w3.org/1999/xlink" x="0px" y="0px"
	 width="202px" height="202px" viewBox="0 0 202 202" enable-background="new 0 0 202 202" xml:space="preserve">
<g>
	<path d="M101.025,201.975c-26.949,0-50.241-10.038-69.229-29.835c-18.792-19.594-28.32-43.537-28.32-71.165
		c0-27.595,9.528-51.521,28.32-71.114c18.988-19.798,42.28-29.836,69.23-29.836c26.917,0,50.192,10.039,69.179,29.837
		c18.792,19.592,28.321,43.518,28.321,71.113c0,27.627-9.528,51.571-28.321,71.164C151.216,191.937,127.94,201.975,101.025,201.975z
		 M101.025,35.025c-17.285,0-31.667,6.236-43.97,19.063c-12.502,13.035-18.58,28.372-18.58,46.887
		c0,18.548,6.078,33.902,18.58,46.937c12.303,12.827,26.686,19.063,43.97,19.063c17.25,0,31.617-6.235,43.919-19.063
		c12.503-13.036,18.581-28.389,18.581-46.937c0-18.515-6.078-33.852-18.58-46.886C132.642,41.261,118.275,35.025,101.025,35.025z"/>
</g>
</svg>
