<?xml version="1.0" encoding="utf-8"?>
<!-- Generator: Adobe Illustrator 15.0.0, SVG Export Plug-In . SVG Version: 6.00 Build 0)  -->
<!DOCTYPE svg PUBLIC "-//W3C//DTD SVG 1.1//EN" "http://www.w3.org/Graphics/SVG/1.1/DTD/svg11.dtd">
<svg version="1.1" id="Layer_1" xmlns="http://www.w3.org/2000/svg" xmlns:xlink="http://www.w3.org/1999/xlink" x="0px" y="0px"
	 width="202px" height="202px" viewBox="0 0 202 202" enable-background="new 0 0 202 202" xml:space="preserve">
<g>
	<path d="M52.65,201.035c-4.988,0-9.94-2.12-13.402-6.236c-6.221-7.396-5.268-18.436,2.129-24.656
		c31.432-26.436,57.18-48.815,76.528-66.519c14.143-12.934,17.334-26.315,10.352-43.389c-4.74-11.593-14.151-24.827-45.02-24.252
		c-9.657,0.171-17.642-7.51-17.821-17.173c-0.179-9.664,7.51-17.642,17.173-17.821c48.628-0.895,69.281,24.518,78.063,45.999
		c12.651,30.934,6.039,59.449-19.123,82.462c-19.704,18.027-45.821,40.731-77.624,67.479
		C60.625,199.688,56.626,201.035,52.65,201.035z"/>
</g>
</svg>
