<?xml version="1.0" encoding="utf-8"?>
<!-- Generator: Adobe Illustrator 15.0.0, SVG Export Plug-In . SVG Version: 6.00 Build 0)  -->
<!DOCTYPE svg PUBLIC "-//W3C//DTD SVG 1.0//EN" "http://www.w3.org/TR/2001/REC-SVG-20010904/DTD/svg10.dtd">
<svg version="1.0" id="Layer_1" xmlns="http://www.w3.org/2000/svg" xmlns:xlink="http://www.w3.org/1999/xlink" x="0px" y="0px"
	 width="202px" height="202px" viewBox="0 0 202 202" enable-background="new 0 0 202 202" xml:space="preserve">
<g>
	<path d="M44.394,201.036c-5.332,0-10.595-2.426-14.032-7.025c-5.785-7.742-4.199-18.708,3.543-24.494
		c35.42-26.468,64.548-48.88,86.576-66.613c21.862-17.593,21.189-33.234,18.16-44.894c-2.907-11.196-9.835-22.562-39.039-22.027
		c-0.109,0.002-0.22,0.003-0.329,0.003c-9.515,0-17.314-7.624-17.491-17.177c-0.178-9.663,7.511-17.642,17.174-17.82
		c52.833-0.986,68.777,29.795,73.562,48.225c5.561,21.409,4.854,52.834-30.092,80.957c-22.352,17.994-51.815,40.666-87.57,67.385
		C51.712,199.902,48.037,201.036,44.394,201.036z"/>
</g>
</svg>
