<?xml version="1.0" encoding="utf-8"?>
<!-- Generator: Adobe Illustrator 15.0.0, SVG Export Plug-In . SVG Version: 6.00 Build 0)  -->
<!DOCTYPE svg PUBLIC "-//W3C//DTD SVG 1.0//EN" "http://www.w3.org/TR/2001/REC-SVG-20010904/DTD/svg10.dtd">
<svg version="1.0" id="Layer_1" xmlns="http://www.w3.org/2000/svg" xmlns:xlink="http://www.w3.org/1999/xlink" x="0px" y="0px"
	 width="202px" height="202px" viewBox="0 0 202 202" enable-background="new 0 0 202 202" xml:space="preserve">
<g>
	<path fill="none" stroke="#000000" stroke-width="35" stroke-linecap="round" stroke-linejoin="round" stroke-miterlimit="3" d="
		M579.85,733.8l-80.3,162.3c-25.2-0.198-44.7-10.398-58.5-30.6c-13.898-20.366-20.966-44.7-21.2-73
		c-0.198-24.5,5.234-45.066,16.302-61.7"/>
</g>
<g>
	<path d="M123.781,193.625c-9.665,0-17.5-7.835-17.5-17.5v-2.05c0-9.665,7.835-17.5,17.5-17.5s17.5,7.835,17.5,17.5v2.05
		C141.281,185.79,133.446,193.625,123.781,193.625z M127.498,135.376c-0.337,0-0.675-0.01-1.016-0.029
		c-9.649-0.553-17.023-8.822-16.472-18.472c3.341-58.371-20.833-70.103-39.308-73.849C61.23,41.105,55.109,31.869,57.03,22.396
		C58.952,12.924,68.189,6.802,77.66,8.724c33.19,6.731,71.807,31.306,67.294,110.151
		C144.421,128.184,136.705,135.376,127.498,135.376z"/>
</g>
</svg>
