<?xml version="1.0" encoding="utf-8"?>
<!-- Generator: Adobe Illustrator 15.0.0, SVG Export Plug-In . SVG Version: 6.00 Build 0)  -->
<!DOCTYPE svg PUBLIC "-//W3C//DTD SVG 1.0//EN" "http://www.w3.org/TR/2001/REC-SVG-20010904/DTD/svg10.dtd">
<svg version="1.0" id="Layer_1" xmlns="http://www.w3.org/2000/svg" xmlns:xlink="http://www.w3.org/1999/xlink" x="0px" y="0px"
	 width="202px" height="202px" viewBox="0 0 202 202" enable-background="new 0 0 202 202" xml:space="preserve">
<g>
	<path fill="none" stroke="#000000" stroke-width="35" stroke-linecap="round" stroke-linejoin="round" stroke-miterlimit="3" d="
		M579.85,733.8l-80.3,162.3c-25.2-0.198-44.7-10.398-58.5-30.6c-13.898-20.366-20.966-44.7-21.2-73
		c-0.198-24.5,5.234-45.066,16.302-61.7"/>
</g>
<g>
	<path d="M101.125,199.5c-9.665,0-17.5-7.835-17.5-17.5v-30.1c0-9.665,7.835-17.5,17.5-17.5s17.5,7.835,17.5,17.5V182
		C118.625,191.665,110.79,199.5,101.125,199.5z M100.875,126.05c-9.665,0-17.5-7.835-17.5-17.5v-2.05c0-9.665,7.835-17.5,17.5-17.5
		s17.5,7.835,17.5,17.5v2.05C118.375,118.215,110.54,126.05,100.875,126.05z"/>
</g>
</svg>
