<?xml version="1.0" encoding="utf-8"?>
<!-- Generator: Adobe Illustrator 15.0.0, SVG Export Plug-In . SVG Version: 6.00 Build 0)  -->
<!DOCTYPE svg PUBLIC "-//W3C//DTD SVG 1.0//EN" "http://www.w3.org/TR/2001/REC-SVG-20010904/DTD/svg10.dtd">
<svg version="1.0" id="Layer_1" xmlns="http://www.w3.org/2000/svg" xmlns:xlink="http://www.w3.org/1999/xlink" x="0px" y="0px"
	 width="202px" height="202px" viewBox="0 0 202 202" enable-background="new 0 0 202 202" xml:space="preserve">
<g>
	<path d="M122.452,202c-4.634,0-9.258-1.829-12.699-5.456l-16.372-17.259c-20.627-1.728-38.625-10.568-53.582-26.345
		C23.311,135.546,14.95,114.285,14.95,89.75c0-24.46,8.355-45.699,24.835-63.125c0.131-0.139,0.265-0.276,0.401-0.41l0.182-0.182
		C57.042,8.758,77.44,0,101,0c0.843,0,1.689,0.021,2.521,0.061c22.734,0.607,42.44,9.537,58.575,26.544
		c16.556,17.417,24.955,38.667,24.955,63.146v0.45c0,9.665-7.835,17.5-17.5,17.5s-17.5-7.835-17.5-17.5v-0.45
		c0-15.417-5.016-28.188-15.335-39.044c-9.697-10.222-20.908-15.341-34.286-15.662c-0.178-0.004-0.355-0.011-0.533-0.021
		C101.605,35.008,101.307,35,101,35c-13.928,0-25.552,5.047-35.535,15.429c-0.079,0.082-0.159,0.164-0.24,0.245l-0.175,0.174
		C54.891,61.671,49.95,74.4,49.95,89.75c0,15.492,4.988,28.286,15.25,39.111c10.04,10.59,21.75,15.738,35.799,15.738h0.2
		c4.801,0,9.392,1.973,12.696,5.456l21.25,22.4c6.651,7.012,6.359,18.088-0.652,24.74C131.108,200.407,126.776,202,122.452,202z"/>
</g>
</svg>
