<?xml version="1.0" encoding="utf-8"?>
<!-- Generator: Adobe Illustrator 15.0.0, SVG Export Plug-In . SVG Version: 6.00 Build 0)  -->
<!DOCTYPE svg PUBLIC "-//W3C//DTD SVG 1.0//EN" "http://www.w3.org/TR/2001/REC-SVG-20010904/DTD/svg10.dtd">
<svg version="1.0" id="Layer_1" xmlns="http://www.w3.org/2000/svg" xmlns:xlink="http://www.w3.org/1999/xlink" x="0px" y="0px"
	 width="202px" height="202px" viewBox="0 0 202 202" enable-background="new 0 0 202 202" xml:space="preserve">
<g>
	<path d="M60.34,201.025c-9.665,0-17.5-7.835-17.5-17.5V88.032c-0.862-37.83,17.058-58.182,32.259-68.595
		c0.042-0.028,0.083-0.056,0.124-0.084C93.356,7.159,115.499,0.976,141.039,0.976h0.65c9.665,0,17.5,7.835,17.5,17.5
		s-7.835,17.5-17.5,17.5h-0.65c-18.685,0-33.805,4.049-46.22,12.377c-7.596,5.218-17.58,14.947-16.984,39.039
		c0.003,0.144,0.005,0.289,0.005,0.433v95.7C77.84,193.19,70.005,201.025,60.34,201.025z"/>
</g>
</svg>
