<?xml version="1.0" encoding="utf-8"?>
<!-- Generator: Adobe Illustrator 15.0.0, SVG Export Plug-In . SVG Version: 6.00 Build 0)  -->
<!DOCTYPE svg PUBLIC "-//W3C//DTD SVG 1.0//EN" "http://www.w3.org/TR/2001/REC-SVG-20010904/DTD/svg10.dtd">
<svg version="1.0" id="Layer_1" xmlns="http://www.w3.org/2000/svg" xmlns:xlink="http://www.w3.org/1999/xlink" x="0px" y="0px"
	 width="202px" height="202px" viewBox="0 0 202 202" enable-background="new 0 0 202 202" xml:space="preserve">
<g>
	<path d="M46.75,201.824H46.3c-9.665,0-17.5-7.835-17.5-17.5s7.835-17.5,17.5-17.5h0.45c10.209,0,18.243-3.248,25.271-10.218
		c7.936-8.158,11.799-22.067,11.481-41.344c-0.001-0.096-0.002-0.192-0.002-0.288v-32.7c0-0.098,0.001-0.196,0.002-0.293
		c0.443-26.421,7.69-46.994,21.541-61.146c0.044-0.045,0.088-0.089,0.132-0.134c13.619-13.62,30.45-20.525,50.025-20.525h0.5
		c9.665,0,17.5,7.835,17.5,17.5s-7.835,17.5-17.5,17.5h-0.5c-10.202,0-18.215,3.243-25.207,10.205
		c-7.32,7.53-11.188,19.993-11.493,37.045v32.409c0.45,28.965-6.8,51.284-21.55,66.339c-0.049,0.049-0.098,0.099-0.146,0.147
		C83.153,194.926,66.313,201.824,46.75,201.824z"/>
</g>
</svg>
