<?xml version="1.0" encoding="utf-8"?>
<!-- Generator: Adobe Illustrator 15.0.0, SVG Export Plug-In . SVG Version: 6.00 Build 0)  -->
<!DOCTYPE svg PUBLIC "-//W3C//DTD SVG 1.0//EN" "http://www.w3.org/TR/2001/REC-SVG-20010904/DTD/svg10.dtd">
<svg version="1.0" id="Layer_1" xmlns="http://www.w3.org/2000/svg" xmlns:xlink="http://www.w3.org/1999/xlink" x="0px" y="0px"
	 width="202px" height="202px" viewBox="0 0 202 202" enable-background="new 0 0 202 202" xml:space="preserve">
<g>
	<path d="M101.75,201.15c-31.224,0-56.774-13.215-73.89-38.215C11.96,139.751,3.762,111.908,3.5,80.194
		C3.272,52.238,9.763,28.163,22.793,8.636c5.366-8.04,16.231-10.208,24.271-4.843s10.208,16.231,4.843,24.271
		C42.84,41.65,38.329,59.093,38.5,79.907c0.206,24.967,6.169,45.655,18.232,63.246c10.745,15.694,25.047,22.998,45.018,22.998
		c18.981,0,32.823-7.304,43.56-22.986c12.033-17.588,17.984-38.281,18.191-63.259c0.169-20.821-4.33-38.271-13.372-51.861
		c-5.354-8.047-3.17-18.91,4.877-24.264c8.049-5.354,18.91-3.17,24.264,4.877c12.987,19.521,19.457,43.589,19.229,71.535
		c-0.263,31.712-8.44,59.549-24.306,82.74C157.074,187.936,132.024,201.15,101.75,201.15z"/>
</g>
</svg>
