<?xml version="1.0" encoding="utf-8"?>
<!-- Generator: Adobe Illustrator 15.0.0, SVG Export Plug-In . SVG Version: 6.00 Build 0)  -->
<!DOCTYPE svg PUBLIC "-//W3C//DTD SVG 1.1//EN" "http://www.w3.org/Graphics/SVG/1.1/DTD/svg11.dtd">
<svg version="1.1" id="Layer_1" xmlns="http://www.w3.org/2000/svg" xmlns:xlink="http://www.w3.org/1999/xlink" x="0px" y="0px"
	 width="202px" height="202px" viewBox="0 0 202 202" enable-background="new 0 0 202 202" xml:space="preserve">
<g>
	<path d="M101.75,201.101H101c-0.054,0-0.108,0-0.162-0.001c-31.223-0.289-55.786-13.137-73.008-38.186
		C11.94,139.689,3.762,111.87,3.5,80.194c0-0.048,0-0.096,0-0.145c0-1.929,0.017-3.808,0.05-5.635
		c0.003-0.602,0.02-1.208,0.049-1.811V18.399c0-9.665,7.835-17.5,17.5-17.5s17.5,7.835,17.5,17.5v54.701
		c0,0.387-0.013,0.773-0.039,1.16c-0.007,0.113-0.011,0.227-0.011,0.34c0,0.11-0.001,0.219-0.003,0.329
		c-0.031,1.636-0.046,3.318-0.047,5.047c0.217,24.91,6.168,45.565,18.193,63.14c10.635,15.468,24.75,22.783,44.394,22.983h0.663
		c18.956,0,32.801-7.31,43.571-23.004c11.285-16.483,17.19-35.688,18.04-58.693c0.003-0.075,0.006-0.15,0.01-0.226l0.079-1.646
		V18.399c0-9.665,7.835-17.5,17.5-17.5s17.5,7.835,17.5,17.5v56.04c0.033,1.82,0.05,3.69,0.05,5.611c0,1.141-0.02,2.282-0.058,3.423
		c-0.004,0.149-0.011,0.298-0.019,0.446l-0.09,1.872c-1.101,29.363-9.224,55.301-24.145,77.094
		C157.029,187.892,131.983,201.101,101.75,201.101z"/>
</g>
</svg>
