<?xml version="1.0" encoding="utf-8"?>
<!-- Generator: Adobe Illustrator 15.0.0, SVG Export Plug-In . SVG Version: 6.00 Build 0)  -->
<!DOCTYPE svg PUBLIC "-//W3C//DTD SVG 1.0//EN" "http://www.w3.org/TR/2001/REC-SVG-20010904/DTD/svg10.dtd">
<svg version="1.0" id="Layer_1" xmlns="http://www.w3.org/2000/svg" xmlns:xlink="http://www.w3.org/1999/xlink" x="0px" y="0px"
	 width="202px" height="202px" viewBox="0 0 202 202" enable-background="new 0 0 202 202" xml:space="preserve">
<g>
	<path d="M100.704,201.15c-0.047,0-0.093,0-0.139-0.001c-30.715-0.242-55.893-13.462-72.812-38.229
		c-15.83-23.194-23.987-51.025-24.25-82.727c-0.228-27.95,6.242-52.018,19.23-71.538C28.086,0.61,38.95-1.573,46.997,3.78
		c8.047,5.354,10.229,16.217,4.876,24.264c-9.042,13.59-13.541,31.039-13.371,51.863c0.207,24.981,6.145,45.681,18.155,63.277
		c8.58,12.561,19.42,19.736,33.61,22.095L165.316,13.59c4.286-8.663,14.782-12.212,23.446-7.925
		c8.662,4.286,12.21,14.783,7.925,23.445l-80.299,162.301C113.436,197.379,107.354,201.15,100.704,201.15z"/>
</g>
<g>
	<path fill="none" stroke="#000000" stroke-width="35" stroke-linecap="round" stroke-linejoin="round" stroke-miterlimit="3" d="
		M579.85,733.8l-80.3,162.3c-25.2-0.198-44.7-10.398-58.5-30.6c-13.898-20.366-20.966-44.7-21.2-73
		c-0.198-24.5,5.234-45.066,16.302-61.7"/>
</g>
</svg>
