<?xml version="1.0" encoding="utf-8"?>
<!-- Generator: Adobe Illustrator 15.0.0, SVG Export Plug-In . SVG Version: 6.00 Build 0)  -->
<!DOCTYPE svg PUBLIC "-//W3C//DTD SVG 1.0//EN" "http://www.w3.org/TR/2001/REC-SVG-20010904/DTD/svg10.dtd">
<svg version="1.0" id="Layer_1" xmlns="http://www.w3.org/2000/svg" xmlns:xlink="http://www.w3.org/1999/xlink" x="0px" y="0px"
	 width="202px" height="202px" viewBox="0 0 202 202" enable-background="new 0 0 202 202" xml:space="preserve">
<g>
	<path fill="none" stroke="#000000" stroke-width="35" stroke-linecap="round" stroke-linejoin="round" stroke-miterlimit="3" d="
		M579.85,733.8l-80.3,162.3c-25.2-0.198-44.7-10.398-58.5-30.6c-13.898-20.366-20.966-44.7-21.2-73
		c-0.198-24.5,5.234-45.066,16.302-61.7"/>
</g>
<g>
	<path d="M181.006,201.15c-0.048,0-0.096,0-0.144-0.001c-23.467-0.188-43.649-8.158-59.309-23.248l-6.511,13.397
		c-2.93,6.029-9.044,9.852-15.739,9.852c-0.047,0-0.094,0-0.142-0.001c-30.387-0.244-55.249-13.508-71.898-38.359
		C11.724,139.631,3.728,111.831,3.503,80.174C3.276,52.3,9.618,28.273,22.352,8.779c5.286-8.092,16.129-10.367,24.222-5.08
		c8.091,5.286,10.366,16.13,5.08,24.222c-8.897,13.62-13.322,31.11-13.151,51.986c0.177,25.044,6.01,45.773,17.833,63.392
		c8.31,12.403,18.782,19.526,32.463,21.929l9.977-20.531c-8.848-19.111-13.409-40.771-13.571-64.526
		c-0.228-27.869,6.114-51.896,18.848-71.39c5.287-8.09,16.129-10.366,24.223-5.08c8.091,5.286,10.365,16.13,5.08,24.222
		c-8.897,13.62-13.322,31.11-13.152,51.986c0.043,6.257,0.46,12.299,1.247,18.116l40.962-84.32
		c4.225-8.694,14.698-12.316,23.388-8.094c8.693,4.223,12.317,14.694,8.095,23.388l-55.666,114.587
		c10.346,15.242,23.992,22.415,42.916,22.567c9.665,0.077,17.437,7.976,17.358,17.64C198.425,193.407,190.604,201.15,181.006,201.15
		z"/>
</g>
</svg>
