<?xml version="1.0" encoding="utf-8"?>
<!-- Generator: Adobe Illustrator 15.0.0, SVG Export Plug-In . SVG Version: 6.00 Build 0)  -->
<!DOCTYPE svg PUBLIC "-//W3C//DTD SVG 1.0//EN" "http://www.w3.org/TR/2001/REC-SVG-20010904/DTD/svg10.dtd">
<svg version="1.0" id="Layer_1" xmlns="http://www.w3.org/2000/svg" xmlns:xlink="http://www.w3.org/1999/xlink" x="0px" y="0px"
	 width="202px" height="202px" viewBox="0 0 202 202" enable-background="new 0 0 202 202" xml:space="preserve">
<g>
	<path fill="none" stroke="#000000" stroke-width="35" stroke-linecap="round" stroke-linejoin="round" stroke-miterlimit="3" d="
		M579.85,733.8l-80.3,162.3c-25.2-0.198-44.7-10.398-58.5-30.6c-13.898-20.366-20.966-44.7-21.2-73
		c-0.198-24.5,5.234-45.066,16.302-61.7"/>
</g>
<g>
	<path d="M178.051,198.725c-4.541,0-9.078-1.757-12.506-5.258l-64.397-65.779l-11.346,11.584c-6.764,6.905-17.843,7.02-24.747,0.256
		c-6.905-6.764-7.019-17.843-0.256-24.748l11.861-12.108L8.493,33.015c-6.76-6.907-6.64-17.987,0.268-24.747
		c6.907-6.76,17.987-6.642,24.747,0.268l67.642,69.12l67.343-68.819c6.761-6.907,17.84-7.028,24.747-0.269
		c6.908,6.76,7.028,17.839,0.269,24.747l-67.87,69.358l64.917,66.31c6.762,6.906,6.644,17.986-0.263,24.747
		C186.887,197.063,182.468,198.725,178.051,198.725z"/>
</g>
</svg>
