<?xml version="1.0" encoding="utf-8"?>
<!-- Generator: Adobe Illustrator 15.0.0, SVG Export Plug-In . SVG Version: 6.00 Build 0)  -->
<!DOCTYPE svg PUBLIC "-//W3C//DTD SVG 1.0//EN" "http://www.w3.org/TR/2001/REC-SVG-20010904/DTD/svg10.dtd">
<svg version="1.0" id="Layer_1" xmlns="http://www.w3.org/2000/svg" xmlns:xlink="http://www.w3.org/1999/xlink" x="0px" y="0px"
	 width="202px" height="202px" viewBox="0 0 202 202" enable-background="new 0 0 202 202" xml:space="preserve">
<g>
	<path fill="none" stroke="#000000" stroke-width="35" stroke-linecap="round" stroke-linejoin="round" stroke-miterlimit="3" d="
		M579.85,733.8l-80.3,162.3c-25.2-0.198-44.7-10.398-58.5-30.6c-13.898-20.366-20.966-44.7-21.2-73
		c-0.198-24.5,5.234-45.066,16.302-61.7"/>
</g>
<g>
	<path d="M84.899,201.025c-9.665,0-17.5-7.835-17.5-17.5v-95.7c0-0.136,0.001-0.272,0.005-0.408
		c0.057-2.426,0.028-4.808-0.083-7.079c-0.807-15.215-5.134-26.107-13.226-33.232c-8.791-7.489-19.438-11.13-32.546-11.13h-0.55
		c-9.665,0-17.5-7.835-17.5-17.5s7.835-17.5,17.5-17.5h0.55c21.543,0,40.175,6.595,55.377,19.602c0.05,0.043,0.1,0.086,0.15,0.13
		c15.4,13.481,23.878,32.942,25.199,57.842c0.153,3.109,0.194,6.276,0.124,9.474v95.503
		C102.398,193.19,94.564,201.025,84.899,201.025z M135.749,83.975c-4.434,0-8.869-1.674-12.278-5.031
		c-6.886-6.782-6.972-17.862-0.189-24.748l45.25-45.95c6.781-6.887,17.86-6.971,24.748-0.19c6.886,6.782,6.972,17.862,0.189,24.748
		l-45.25,45.95C144.794,82.232,140.272,83.975,135.749,83.975z"/>
</g>
</svg>
