<?xml version="1.0" encoding="utf-8"?>
<!-- Generator: Adobe Illustrator 15.0.0, SVG Export Plug-In . SVG Version: 6.00 Build 0)  -->
<!DOCTYPE svg PUBLIC "-//W3C//DTD SVG 1.0//EN" "http://www.w3.org/TR/2001/REC-SVG-20010904/DTD/svg10.dtd">
<svg version="1.0" id="Layer_1" xmlns="http://www.w3.org/2000/svg" xmlns:xlink="http://www.w3.org/1999/xlink" x="0px" y="0px"
	 width="202px" height="202px" viewBox="0 0 202 202" enable-background="new 0 0 202 202" xml:space="preserve">
<g>
	<path fill="none" stroke="#000000" stroke-width="35" stroke-linecap="round" stroke-linejoin="round" stroke-miterlimit="3" d="
		M579.85,733.8l-80.3,162.3c-25.2-0.198-44.7-10.398-58.5-30.6c-13.898-20.366-20.966-44.7-21.2-73
		c-0.198-24.5,5.234-45.066,16.302-61.7"/>
</g>
<g>
	<path d="M82.65,200.2c-4.464,0-8.929-1.697-12.344-5.096c-0.487-0.484-0.957-1.002-1.431-1.576
		c-13.429-15.725-20.861-33.808-22.093-53.75c-0.003-0.06-0.007-0.119-0.01-0.179c-1.183-22.993,8.031-44.977,27.391-65.348
		L108.535,36.8H53.65c-9.665,0-17.5-7.835-17.5-17.5s7.835-17.5,17.5-17.5h94.7c6.941,0,13.228,4.103,16.021,10.458
		c2.794,6.355,1.566,13.761-3.127,18.875l-61.4,66.9c-0.073,0.08-0.147,0.159-0.222,0.237
		c-12.695,13.326-18.55,26.229-17.899,39.443c0.782,12.371,5.317,23.229,13.862,33.194c0.013,0.015,0.026,0.03,0.039,0.045
		c6.218,6.854,6.034,17.457-0.568,24.092C91.636,198.48,87.144,200.2,82.65,200.2z"/>
</g>
</svg>
