<?xml version="1.0" encoding="utf-8"?>
<!-- Generator: Adobe Illustrator 15.0.0, SVG Export Plug-In . SVG Version: 6.00 Build 0)  -->
<!DOCTYPE svg PUBLIC "-//W3C//DTD SVG 1.0//EN" "http://www.w3.org/TR/2001/REC-SVG-20010904/DTD/svg10.dtd">
<svg version="1.0" id="Layer_1" xmlns="http://www.w3.org/2000/svg" xmlns:xlink="http://www.w3.org/1999/xlink" x="0px" y="0px"
	 width="202px" height="202px" viewBox="0 0 202 202" enable-background="new 0 0 202 202" xml:space="preserve">
<g>
	<path fill="none" stroke="#000000" stroke-width="35" stroke-linecap="round" stroke-linejoin="round" stroke-miterlimit="3" d="
		M579.85,733.8l-80.3,162.3c-25.2-0.198-44.7-10.398-58.5-30.6c-13.898-20.366-20.966-44.7-21.2-73
		c-0.198-24.5,5.234-45.066,16.302-61.7"/>
</g>
<g>
	<path d="M125.78,198.555c-6.977,0-13.569-4.2-16.284-11.084c-8.895-22.55-14.387-44.984-16.477-67.221H76.225
		c-9.665,0-17.5-7.835-17.5-17.5s7.835-17.5,17.5-17.5h16.326c1.637-24.02,7.33-47.746,17.08-71.053
		c3.73-8.917,13.985-13.119,22.897-9.391c8.917,3.73,13.121,13.981,9.392,22.898c-20.024,47.87-19.979,95.929,0.135,146.925
		c3.547,8.99-0.867,19.154-9.858,22.7C130.089,198.16,127.917,198.555,125.78,198.555z"/>
</g>
</svg>
