<?xml version="1.0" encoding="utf-8"?>
<!-- Generator: Adobe Illustrator 15.0.0, SVG Export Plug-In . SVG Version: 6.00 Build 0)  -->
<!DOCTYPE svg PUBLIC "-//W3C//DTD SVG 1.0//EN" "http://www.w3.org/TR/2001/REC-SVG-20010904/DTD/svg10.dtd">
<svg version="1.0" id="Layer_1" xmlns="http://www.w3.org/2000/svg" xmlns:xlink="http://www.w3.org/1999/xlink" x="0px" y="0px"
	 width="202px" height="202px" viewBox="0 0 202 202" enable-background="new 0 0 202 202" xml:space="preserve">
<g>
	<path fill="none" stroke="#000000" stroke-width="35" stroke-linecap="round" stroke-linejoin="round" stroke-miterlimit="3" d="
		M579.85,733.8l-80.3,162.3c-25.2-0.198-44.7-10.398-58.5-30.6c-13.898-20.366-20.966-44.7-21.2-73
		c-0.198-24.5,5.234-45.066,16.302-61.7"/>
</g>
<g>
	<path d="M128.613,129.799c-11.785,0-23.06-3.782-32.966-11.116l-11.253-8.038c-4.272-2.882-8.603-3.917-13.61-3.258
		c-6.118,0.799-11.681,3.038-17.024,6.848c-0.176,0.126-0.354,0.248-0.535,0.367c-0.702,0.462-1.388,0.857-2.095,1.209
		c-8.659,4.295-19.159,0.761-23.456-7.896c-4.029-8.119-1.17-17.861,6.343-22.584c9.838-6.884,20.674-11.138,32.216-12.646
		c13.715-1.803,26.516,1.276,38.043,9.156c0.099,0.068,0.197,0.136,0.295,0.207l11.551,8.25c0.095,0.068,0.189,0.137,0.284,0.207
		c4.749,3.54,9.326,4.812,14.834,4.13c6.118-0.83,11.671-3.08,16.974-6.876c0.126-0.09,0.253-0.179,0.381-0.266
		c0.728-0.492,1.478-0.932,2.229-1.308c8.644-4.323,19.156-0.818,23.479,7.826c4.055,8.109,1.223,17.861-6.279,22.606
		c-9.802,6.889-20.632,11.165-32.199,12.715c-0.042,0.006-0.084,0.012-0.125,0.017C133.322,129.648,130.956,129.799,128.613,129.799
		z"/>
</g>
</svg>
