<?xml version="1.0" encoding="utf-8"?>
<!-- Generator: Adobe Illustrator 15.0.0, SVG Export Plug-In . SVG Version: 6.00 Build 0)  -->
<!DOCTYPE svg PUBLIC "-//W3C//DTD SVG 1.0//EN" "http://www.w3.org/TR/2001/REC-SVG-20010904/DTD/svg10.dtd">
<svg version="1.0" id="Layer_1" xmlns="http://www.w3.org/2000/svg" xmlns:xlink="http://www.w3.org/1999/xlink" x="0px" y="0px"
	 width="202px" height="202px" viewBox="0 0 202 202" enable-background="new 0 0 202 202" xml:space="preserve">
<g>
	<path d="M21.05,200.574c-9.665,0-17.5-7.835-17.5-17.5v-42.34c-0.033-1.404-0.05-2.841-0.05-4.31c0-0.957,0.021-1.914,0.063-2.871
		c0.006-0.172,0.015-0.343,0.027-0.513c0.03-0.507,0.06-0.99,0.091-1.448c1.199-23.788,9.832-44.692,25.661-62.131
		C46.683,50.3,70.546,40.574,100.25,40.574H101c0.039,0,0.077,0,0.115,0c30.317,0.2,54.408,9.923,71.603,28.899
		c16.831,18.601,25.502,41.059,25.781,66.761c0.001,0.063,0.001,0.127,0.001,0.19c0,1.482-0.018,2.934-0.051,4.35
		c-0.004,0.508-0.021,1.012-0.049,1.511v40.788c0,9.665-7.835,17.5-17.5,17.5s-17.5-7.835-17.5-17.5v-41.398
		c0-0.444,0.017-0.889,0.051-1.332c0.001-0.08,0.002-0.16,0.004-0.24c0.028-1.165,0.044-2.36,0.045-3.581
		c-0.205-17.096-5.677-31.345-16.727-43.556c-10.471-11.556-25.466-17.248-45.835-17.392h-0.688
		c-19.672,0-34.384,5.689-44.975,17.392c-10.437,11.499-15.876,24.743-16.646,40.51c-0.006,0.12-0.013,0.239-0.021,0.358
		c-0.02,0.291-0.04,0.596-0.059,0.912v48.327C38.55,192.739,30.715,200.574,21.05,200.574z M133.3,36.425H68.7
		c-9.665,0-17.5-7.835-17.5-17.5s7.835-17.5,17.5-17.5h64.6c9.665,0,17.5,7.835,17.5,17.5S142.965,36.425,133.3,36.425z"/>
</g>
</svg>
